<svg xmlns="http://www.w3.org/2000/svg" xmlns:xlink="http://www.w3.org/1999/xlink" width="600" height="400" viewBox="0 0 2400 1600">
<defs>
  <clipPath id="clip290">
    <rect x="0" y="0" width="2400" height="1600"></rect>
  </clipPath>
</defs>
<path clip-path="url(#clip290)" d="M0 1600 L2400 1600 L2400 0 L0 0  Z" fill="#ffffff" fill-rule="evenodd" fill-opacity="1"></path>
<defs>
  <clipPath id="clip291">
    <rect x="480" y="0" width="1681" height="1600"></rect>
  </clipPath>
</defs>
<path clip-path="url(#clip290)" d="M262.551 1423.18 L2352.76 1423.18 L2352.76 123.472 L262.551 123.472  Z" fill="#ffffff" fill-rule="evenodd" fill-opacity="1"></path>
<defs>
  <clipPath id="clip292">
    <rect x="262" y="123" width="2091" height="1301"></rect>
  </clipPath>
</defs>
<polyline clip-path="url(#clip292)" style="stroke:#000000; stroke-linecap:round; stroke-linejoin:round; stroke-width:2; stroke-opacity:0.1; fill:none" points="510.075,1423.18 510.075,123.472 "></polyline>
<polyline clip-path="url(#clip292)" style="stroke:#000000; stroke-linecap:round; stroke-linejoin:round; stroke-width:2; stroke-opacity:0.1; fill:none" points="785.102,1423.18 785.102,123.472 "></polyline>
<polyline clip-path="url(#clip292)" style="stroke:#000000; stroke-linecap:round; stroke-linejoin:round; stroke-width:2; stroke-opacity:0.1; fill:none" points="1060.13,1423.18 1060.13,123.472 "></polyline>
<polyline clip-path="url(#clip292)" style="stroke:#000000; stroke-linecap:round; stroke-linejoin:round; stroke-width:2; stroke-opacity:0.1; fill:none" points="1335.16,1423.18 1335.16,123.472 "></polyline>
<polyline clip-path="url(#clip292)" style="stroke:#000000; stroke-linecap:round; stroke-linejoin:round; stroke-width:2; stroke-opacity:0.1; fill:none" points="1610.18,1423.18 1610.18,123.472 "></polyline>
<polyline clip-path="url(#clip292)" style="stroke:#000000; stroke-linecap:round; stroke-linejoin:round; stroke-width:2; stroke-opacity:0.1; fill:none" points="1885.21,1423.18 1885.21,123.472 "></polyline>
<polyline clip-path="url(#clip292)" style="stroke:#000000; stroke-linecap:round; stroke-linejoin:round; stroke-width:2; stroke-opacity:0.1; fill:none" points="2160.24,1423.18 2160.24,123.472 "></polyline>
<polyline clip-path="url(#clip290)" style="stroke:#000000; stroke-linecap:round; stroke-linejoin:round; stroke-width:4; stroke-opacity:1; fill:none" points="262.551,1423.18 2352.76,1423.18 "></polyline>
<polyline clip-path="url(#clip290)" style="stroke:#000000; stroke-linecap:round; stroke-linejoin:round; stroke-width:4; stroke-opacity:1; fill:none" points="510.075,1423.18 510.075,1404.28 "></polyline>
<polyline clip-path="url(#clip290)" style="stroke:#000000; stroke-linecap:round; stroke-linejoin:round; stroke-width:4; stroke-opacity:1; fill:none" points="785.102,1423.18 785.102,1404.28 "></polyline>
<polyline clip-path="url(#clip290)" style="stroke:#000000; stroke-linecap:round; stroke-linejoin:round; stroke-width:4; stroke-opacity:1; fill:none" points="1060.13,1423.18 1060.13,1404.28 "></polyline>
<polyline clip-path="url(#clip290)" style="stroke:#000000; stroke-linecap:round; stroke-linejoin:round; stroke-width:4; stroke-opacity:1; fill:none" points="1335.16,1423.18 1335.16,1404.28 "></polyline>
<polyline clip-path="url(#clip290)" style="stroke:#000000; stroke-linecap:round; stroke-linejoin:round; stroke-width:4; stroke-opacity:1; fill:none" points="1610.18,1423.18 1610.18,1404.28 "></polyline>
<polyline clip-path="url(#clip290)" style="stroke:#000000; stroke-linecap:round; stroke-linejoin:round; stroke-width:4; stroke-opacity:1; fill:none" points="1885.21,1423.18 1885.21,1404.28 "></polyline>
<polyline clip-path="url(#clip290)" style="stroke:#000000; stroke-linecap:round; stroke-linejoin:round; stroke-width:4; stroke-opacity:1; fill:none" points="2160.24,1423.18 2160.24,1404.28 "></polyline>
<path clip-path="url(#clip290)" d="M484.763 1481.64 L492.402 1481.64 L492.402 1455.28 L484.092 1456.95 L484.092 1452.69 L492.356 1451.02 L497.032 1451.02 L497.032 1481.64 L504.67 1481.64 L504.67 1485.58 L484.763 1485.58 L484.763 1481.64 Z" fill="#000000" fill-rule="nonzero" fill-opacity="1"></path><path clip-path="url(#clip290)" d="M524.115 1454.1 Q520.504 1454.1 518.675 1457.66 Q516.869 1461.2 516.869 1468.33 Q516.869 1475.44 518.675 1479.01 Q520.504 1482.55 524.115 1482.55 Q527.749 1482.55 529.555 1479.01 Q531.383 1475.44 531.383 1468.33 Q531.383 1461.2 529.555 1457.66 Q527.749 1454.1 524.115 1454.1 M524.115 1450.39 Q529.925 1450.39 532.98 1455 Q536.059 1459.58 536.059 1468.33 Q536.059 1477.06 532.98 1481.67 Q529.925 1486.25 524.115 1486.25 Q518.305 1486.25 515.226 1481.67 Q512.17 1477.06 512.17 1468.33 Q512.17 1459.58 515.226 1455 Q518.305 1450.39 524.115 1450.39 Z" fill="#000000" fill-rule="nonzero" fill-opacity="1"></path><path clip-path="url(#clip290)" d="M763.876 1481.64 L780.195 1481.64 L780.195 1485.58 L758.251 1485.58 L758.251 1481.64 Q760.913 1478.89 765.496 1474.26 Q770.102 1469.61 771.283 1468.27 Q773.528 1465.74 774.408 1464.01 Q775.311 1462.25 775.311 1460.56 Q775.311 1457.8 773.366 1456.07 Q771.445 1454.33 768.343 1454.33 Q766.144 1454.33 763.69 1455.09 Q761.26 1455.86 758.482 1457.41 L758.482 1452.69 Q761.306 1451.55 763.76 1450.97 Q766.214 1450.39 768.251 1450.39 Q773.621 1450.39 776.815 1453.08 Q780.01 1455.77 780.01 1460.26 Q780.01 1462.39 779.2 1464.31 Q778.413 1466.2 776.306 1468.8 Q775.727 1469.47 772.626 1472.69 Q769.524 1475.88 763.876 1481.64 Z" fill="#000000" fill-rule="nonzero" fill-opacity="1"></path><path clip-path="url(#clip290)" d="M800.01 1454.1 Q796.399 1454.1 794.57 1457.66 Q792.764 1461.2 792.764 1468.33 Q792.764 1475.44 794.57 1479.01 Q796.399 1482.55 800.01 1482.55 Q803.644 1482.55 805.45 1479.01 Q807.278 1475.44 807.278 1468.33 Q807.278 1461.2 805.45 1457.66 Q803.644 1454.1 800.01 1454.1 M800.01 1450.39 Q805.82 1450.39 808.875 1455 Q811.954 1459.58 811.954 1468.33 Q811.954 1477.06 808.875 1481.67 Q805.82 1486.25 800.01 1486.25 Q794.2 1486.25 791.121 1481.67 Q788.065 1477.06 788.065 1468.33 Q788.065 1459.58 791.121 1455 Q794.2 1450.39 800.01 1450.39 Z" fill="#000000" fill-rule="nonzero" fill-opacity="1"></path><path clip-path="url(#clip290)" d="M1048.97 1466.95 Q1052.33 1467.66 1054.2 1469.93 Q1056.1 1472.2 1056.1 1475.53 Q1056.1 1480.65 1052.58 1483.45 Q1049.06 1486.25 1042.58 1486.25 Q1040.41 1486.25 1038.09 1485.81 Q1035.8 1485.39 1033.35 1484.54 L1033.35 1480.02 Q1035.29 1481.16 1037.61 1481.74 Q1039.92 1482.32 1042.44 1482.32 Q1046.84 1482.32 1049.13 1480.58 Q1051.45 1478.84 1051.45 1475.53 Q1051.45 1472.48 1049.3 1470.77 Q1047.17 1469.03 1043.35 1469.03 L1039.32 1469.03 L1039.32 1465.19 L1043.53 1465.19 Q1046.98 1465.19 1048.81 1463.82 Q1050.64 1462.43 1050.64 1459.84 Q1050.64 1457.18 1048.74 1455.77 Q1046.87 1454.33 1043.35 1454.33 Q1041.43 1454.33 1039.23 1454.75 Q1037.03 1455.16 1034.39 1456.04 L1034.39 1451.88 Q1037.05 1451.14 1039.37 1450.77 Q1041.7 1450.39 1043.76 1450.39 Q1049.09 1450.39 1052.19 1452.83 Q1055.29 1455.23 1055.29 1459.35 Q1055.29 1462.22 1053.65 1464.21 Q1052 1466.18 1048.97 1466.95 Z" fill="#000000" fill-rule="nonzero" fill-opacity="1"></path><path clip-path="url(#clip290)" d="M1074.97 1454.1 Q1071.36 1454.1 1069.53 1457.66 Q1067.72 1461.2 1067.72 1468.33 Q1067.72 1475.44 1069.53 1479.01 Q1071.36 1482.55 1074.97 1482.55 Q1078.6 1482.55 1080.41 1479.01 Q1082.24 1475.44 1082.24 1468.33 Q1082.24 1461.2 1080.41 1457.66 Q1078.6 1454.1 1074.97 1454.1 M1074.97 1450.39 Q1080.78 1450.39 1083.83 1455 Q1086.91 1459.58 1086.91 1468.33 Q1086.91 1477.06 1083.83 1481.67 Q1080.78 1486.25 1074.97 1486.25 Q1069.16 1486.25 1066.08 1481.67 Q1063.02 1477.06 1063.02 1468.33 Q1063.02 1459.58 1066.08 1455 Q1069.16 1450.39 1074.97 1450.39 Z" fill="#000000" fill-rule="nonzero" fill-opacity="1"></path><path clip-path="url(#clip290)" d="M1323.33 1455.09 L1311.52 1473.54 L1323.33 1473.54 L1323.33 1455.09 M1322.1 1451.02 L1327.98 1451.02 L1327.98 1473.54 L1332.91 1473.54 L1332.91 1477.43 L1327.98 1477.43 L1327.98 1485.58 L1323.33 1485.58 L1323.33 1477.43 L1307.73 1477.43 L1307.73 1472.92 L1322.1 1451.02 Z" fill="#000000" fill-rule="nonzero" fill-opacity="1"></path><path clip-path="url(#clip290)" d="M1350.64 1454.1 Q1347.03 1454.1 1345.2 1457.66 Q1343.4 1461.2 1343.4 1468.33 Q1343.4 1475.44 1345.2 1479.01 Q1347.03 1482.55 1350.64 1482.55 Q1354.28 1482.55 1356.08 1479.01 Q1357.91 1475.44 1357.91 1468.33 Q1357.91 1461.2 1356.08 1457.66 Q1354.28 1454.1 1350.64 1454.1 M1350.64 1450.39 Q1356.45 1450.39 1359.51 1455 Q1362.59 1459.58 1362.59 1468.33 Q1362.59 1477.06 1359.51 1481.67 Q1356.45 1486.25 1350.64 1486.25 Q1344.83 1486.25 1341.75 1481.67 Q1338.7 1477.06 1338.7 1468.33 Q1338.7 1459.58 1341.75 1455 Q1344.83 1450.39 1350.64 1450.39 Z" fill="#000000" fill-rule="nonzero" fill-opacity="1"></path><path clip-path="url(#clip290)" d="M1584.88 1451.02 L1603.24 1451.02 L1603.24 1454.96 L1589.16 1454.96 L1589.16 1463.43 Q1590.18 1463.08 1591.2 1462.92 Q1592.22 1462.73 1593.24 1462.73 Q1599.03 1462.73 1602.41 1465.9 Q1605.79 1469.08 1605.79 1474.49 Q1605.79 1480.07 1602.31 1483.17 Q1598.84 1486.25 1592.52 1486.25 Q1590.35 1486.25 1588.08 1485.88 Q1585.83 1485.51 1583.42 1484.77 L1583.42 1480.07 Q1585.51 1481.2 1587.73 1481.76 Q1589.95 1482.32 1592.43 1482.32 Q1596.43 1482.32 1598.77 1480.21 Q1601.11 1478.1 1601.11 1474.49 Q1601.11 1470.88 1598.77 1468.77 Q1596.43 1466.67 1592.43 1466.67 Q1590.55 1466.67 1588.68 1467.08 Q1586.83 1467.5 1584.88 1468.38 L1584.88 1451.02 Z" fill="#000000" fill-rule="nonzero" fill-opacity="1"></path><path clip-path="url(#clip290)" d="M1625 1454.1 Q1621.39 1454.1 1619.56 1457.66 Q1617.75 1461.2 1617.75 1468.33 Q1617.75 1475.44 1619.56 1479.01 Q1621.39 1482.55 1625 1482.55 Q1628.63 1482.55 1630.44 1479.01 Q1632.27 1475.44 1632.27 1468.33 Q1632.27 1461.2 1630.44 1457.66 Q1628.63 1454.1 1625 1454.1 M1625 1450.39 Q1630.81 1450.39 1633.86 1455 Q1636.94 1459.58 1636.94 1468.33 Q1636.94 1477.06 1633.86 1481.67 Q1630.81 1486.25 1625 1486.25 Q1619.19 1486.25 1616.11 1481.67 Q1613.05 1477.06 1613.05 1468.33 Q1613.05 1459.58 1616.11 1455 Q1619.19 1450.39 1625 1450.39 Z" fill="#000000" fill-rule="nonzero" fill-opacity="1"></path><path clip-path="url(#clip290)" d="M1870.62 1466.44 Q1867.47 1466.44 1865.62 1468.59 Q1863.79 1470.74 1863.79 1474.49 Q1863.79 1478.22 1865.62 1480.39 Q1867.47 1482.55 1870.62 1482.55 Q1873.76 1482.55 1875.59 1480.39 Q1877.44 1478.22 1877.44 1474.49 Q1877.44 1470.74 1875.59 1468.59 Q1873.76 1466.44 1870.62 1466.44 M1879.9 1451.78 L1879.9 1456.04 Q1878.14 1455.21 1876.33 1454.77 Q1874.55 1454.33 1872.79 1454.33 Q1868.16 1454.33 1865.71 1457.45 Q1863.28 1460.58 1862.93 1466.9 Q1864.3 1464.89 1866.36 1463.82 Q1868.42 1462.73 1870.89 1462.73 Q1876.1 1462.73 1879.11 1465.9 Q1882.14 1469.05 1882.14 1474.49 Q1882.14 1479.82 1878.99 1483.03 Q1875.85 1486.25 1870.62 1486.25 Q1864.62 1486.25 1861.45 1481.67 Q1858.28 1477.06 1858.28 1468.33 Q1858.28 1460.14 1862.17 1455.28 Q1866.06 1450.39 1872.61 1450.39 Q1874.37 1450.39 1876.15 1450.74 Q1877.95 1451.09 1879.9 1451.78 Z" fill="#000000" fill-rule="nonzero" fill-opacity="1"></path><path clip-path="url(#clip290)" d="M1900.2 1454.1 Q1896.59 1454.1 1894.76 1457.66 Q1892.95 1461.2 1892.95 1468.33 Q1892.95 1475.44 1894.76 1479.01 Q1896.59 1482.55 1900.2 1482.55 Q1903.83 1482.55 1905.64 1479.01 Q1907.47 1475.44 1907.47 1468.33 Q1907.47 1461.2 1905.64 1457.66 Q1903.83 1454.1 1900.2 1454.1 M1900.2 1450.39 Q1906.01 1450.39 1909.06 1455 Q1912.14 1459.58 1912.14 1468.33 Q1912.14 1477.06 1909.06 1481.67 Q1906.01 1486.25 1900.2 1486.25 Q1894.39 1486.25 1891.31 1481.67 Q1888.25 1477.06 1888.25 1468.33 Q1888.25 1459.58 1891.31 1455 Q1894.39 1450.39 1900.2 1450.39 Z" fill="#000000" fill-rule="nonzero" fill-opacity="1"></path><path clip-path="url(#clip290)" d="M2133.59 1451.02 L2155.82 1451.02 L2155.82 1453.01 L2143.27 1485.58 L2138.39 1485.58 L2150.19 1454.96 L2133.59 1454.96 L2133.59 1451.02 Z" fill="#000000" fill-rule="nonzero" fill-opacity="1"></path><path clip-path="url(#clip290)" d="M2174.94 1454.1 Q2171.32 1454.1 2169.5 1457.66 Q2167.69 1461.2 2167.69 1468.33 Q2167.69 1475.44 2169.5 1479.01 Q2171.32 1482.55 2174.94 1482.55 Q2178.57 1482.55 2180.38 1479.01 Q2182.2 1475.44 2182.2 1468.33 Q2182.2 1461.2 2180.38 1457.66 Q2178.57 1454.1 2174.94 1454.1 M2174.94 1450.39 Q2180.75 1450.39 2183.8 1455 Q2186.88 1459.58 2186.88 1468.33 Q2186.88 1477.06 2183.8 1481.67 Q2180.75 1486.25 2174.94 1486.25 Q2169.13 1486.25 2166.05 1481.67 Q2162.99 1477.06 2162.99 1468.33 Q2162.99 1459.58 2166.05 1455 Q2169.13 1450.39 2174.94 1450.39 Z" fill="#000000" fill-rule="nonzero" fill-opacity="1"></path><path clip-path="url(#clip290)" d="M949.519 1520.52 L989.718 1520.52 L989.718 1525.93 L972.849 1525.93 L972.849 1568.04 L966.388 1568.04 L966.388 1525.93 L949.519 1525.93 L949.519 1520.52 Z" fill="#000000" fill-rule="nonzero" fill-opacity="1"></path><path clip-path="url(#clip290)" d="M993.665 1532.4 L999.522 1532.4 L999.522 1568.04 L993.665 1568.04 L993.665 1532.4 M993.665 1518.52 L999.522 1518.52 L999.522 1525.93 L993.665 1525.93 L993.665 1518.52 Z" fill="#000000" fill-rule="nonzero" fill-opacity="1"></path><path clip-path="url(#clip290)" d="M1042.27 1548.76 L1042.27 1551.62 L1015.34 1551.62 Q1015.72 1557.67 1018.97 1560.85 Q1022.25 1564 1028.07 1564 Q1031.45 1564 1034.6 1563.17 Q1037.78 1562.35 1040.9 1560.69 L1040.9 1566.23 Q1037.75 1567.57 1034.44 1568.27 Q1031.13 1568.97 1027.72 1568.97 Q1019.19 1568.97 1014.19 1564 Q1009.23 1559.04 1009.23 1550.57 Q1009.23 1541.82 1013.94 1536.69 Q1018.68 1531.54 1026.7 1531.54 Q1033.9 1531.54 1038.07 1536.18 Q1042.27 1540.8 1042.27 1548.76 M1036.41 1547.04 Q1036.35 1542.23 1033.71 1539.37 Q1031.1 1536.5 1026.77 1536.5 Q1021.87 1536.5 1018.91 1539.27 Q1015.98 1542.04 1015.53 1547.07 L1036.41 1547.04 Z" fill="#000000" fill-rule="nonzero" fill-opacity="1"></path><path clip-path="url(#clip290)" d="M1079.63 1539.24 Q1081.83 1535.29 1084.89 1533.41 Q1087.94 1531.54 1092.08 1531.54 Q1097.65 1531.54 1100.67 1535.45 Q1103.7 1539.33 1103.7 1546.53 L1103.7 1568.04 L1097.81 1568.04 L1097.81 1546.72 Q1097.81 1541.59 1095.99 1539.11 Q1094.18 1536.63 1090.46 1536.63 Q1085.9 1536.63 1083.26 1539.65 Q1080.62 1542.68 1080.62 1547.9 L1080.62 1568.04 L1074.73 1568.04 L1074.73 1546.72 Q1074.73 1541.56 1072.92 1539.11 Q1071.1 1536.63 1067.32 1536.63 Q1062.83 1536.63 1060.19 1539.68 Q1057.54 1542.71 1057.54 1547.9 L1057.54 1568.04 L1051.66 1568.04 L1051.66 1532.4 L1057.54 1532.4 L1057.54 1537.93 Q1059.55 1534.66 1062.35 1533.1 Q1065.15 1531.54 1069 1531.54 Q1072.89 1531.54 1075.59 1533.51 Q1078.33 1535.48 1079.63 1539.24 Z" fill="#000000" fill-rule="nonzero" fill-opacity="1"></path><path clip-path="url(#clip290)" d="M1121.04 1562.7 L1121.04 1581.6 L1115.15 1581.6 L1115.15 1532.4 L1121.04 1532.4 L1121.04 1537.81 Q1122.89 1534.62 1125.69 1533.1 Q1128.52 1531.54 1132.44 1531.54 Q1138.93 1531.54 1142.97 1536.69 Q1147.05 1541.85 1147.05 1550.25 Q1147.05 1558.65 1142.97 1563.81 Q1138.93 1568.97 1132.44 1568.97 Q1128.52 1568.97 1125.69 1567.44 Q1122.89 1565.88 1121.04 1562.7 M1140.97 1550.25 Q1140.97 1543.79 1138.29 1540.13 Q1135.65 1536.44 1131.01 1536.44 Q1126.36 1536.44 1123.68 1540.13 Q1121.04 1543.79 1121.04 1550.25 Q1121.04 1556.71 1123.68 1560.4 Q1126.36 1564.07 1131.01 1564.07 Q1135.65 1564.07 1138.29 1560.4 Q1140.97 1556.71 1140.97 1550.25 Z" fill="#000000" fill-rule="nonzero" fill-opacity="1"></path><path clip-path="url(#clip290)" d="M1170.57 1536.5 Q1165.86 1536.5 1163.12 1540.19 Q1160.38 1543.85 1160.38 1550.25 Q1160.38 1556.65 1163.09 1560.34 Q1165.83 1564 1170.57 1564 Q1175.25 1564 1177.98 1560.31 Q1180.72 1556.62 1180.72 1550.25 Q1180.72 1543.92 1177.98 1540.23 Q1175.25 1536.5 1170.57 1536.5 M1170.57 1531.54 Q1178.21 1531.54 1182.57 1536.5 Q1186.93 1541.47 1186.93 1550.25 Q1186.93 1559 1182.57 1564 Q1178.21 1568.97 1170.57 1568.97 Q1162.9 1568.97 1158.54 1564 Q1154.21 1559 1154.21 1550.25 Q1154.21 1541.47 1158.54 1536.5 Q1162.9 1531.54 1170.57 1531.54 Z" fill="#000000" fill-rule="nonzero" fill-opacity="1"></path><path clip-path="url(#clip290)" d="M1240.81 1537.81 L1240.81 1518.52 L1246.67 1518.52 L1246.67 1568.04 L1240.81 1568.04 L1240.81 1562.7 Q1238.97 1565.88 1236.13 1567.44 Q1233.33 1568.97 1229.39 1568.97 Q1222.93 1568.97 1218.85 1563.81 Q1214.81 1558.65 1214.81 1550.25 Q1214.81 1541.85 1218.85 1536.69 Q1222.93 1531.54 1229.39 1531.54 Q1233.33 1531.54 1236.13 1533.1 Q1238.97 1534.62 1240.81 1537.81 M1220.86 1550.25 Q1220.86 1556.71 1223.5 1560.4 Q1226.17 1564.07 1230.82 1564.07 Q1235.47 1564.07 1238.14 1560.4 Q1240.81 1556.71 1240.81 1550.25 Q1240.81 1543.79 1238.14 1540.13 Q1235.47 1536.44 1230.82 1536.44 Q1226.17 1536.44 1223.5 1540.13 Q1220.86 1543.79 1220.86 1550.25 Z" fill="#000000" fill-rule="nonzero" fill-opacity="1"></path><path clip-path="url(#clip290)" d="M1289.22 1548.76 L1289.22 1551.62 L1262.3 1551.62 Q1262.68 1557.67 1265.93 1560.85 Q1269.2 1564 1275.03 1564 Q1278.4 1564 1281.55 1563.17 Q1284.74 1562.35 1287.86 1560.69 L1287.86 1566.23 Q1284.71 1567.57 1281.4 1568.27 Q1278.08 1568.97 1274.68 1568.97 Q1266.15 1568.97 1261.15 1564 Q1256.19 1559.04 1256.19 1550.57 Q1256.19 1541.82 1260.9 1536.69 Q1265.64 1531.54 1273.66 1531.54 Q1280.85 1531.54 1285.02 1536.18 Q1289.22 1540.8 1289.22 1548.76 M1283.37 1547.04 Q1283.3 1542.23 1280.66 1539.37 Q1278.05 1536.5 1273.72 1536.5 Q1268.82 1536.5 1265.86 1539.27 Q1262.93 1542.04 1262.49 1547.07 L1283.37 1547.04 Z" fill="#000000" fill-rule="nonzero" fill-opacity="1"></path><path clip-path="url(#clip290)" d="M1335.76 1550.12 Q1328.66 1550.12 1325.92 1551.75 Q1323.19 1553.37 1323.19 1557.29 Q1323.19 1560.4 1325.22 1562.25 Q1327.29 1564.07 1330.82 1564.07 Q1335.69 1564.07 1338.62 1560.63 Q1341.58 1557.16 1341.58 1551.43 L1341.58 1550.12 L1335.76 1550.12 M1347.44 1547.71 L1347.44 1568.04 L1341.58 1568.04 L1341.58 1562.63 Q1339.58 1565.88 1336.59 1567.44 Q1333.59 1568.97 1329.27 1568.97 Q1323.79 1568.97 1320.54 1565.91 Q1317.33 1562.82 1317.33 1557.67 Q1317.33 1551.65 1321.34 1548.6 Q1325.38 1545.54 1333.37 1545.54 L1341.58 1545.54 L1341.58 1544.97 Q1341.58 1540.93 1338.91 1538.73 Q1336.27 1536.5 1331.46 1536.5 Q1328.41 1536.5 1325.51 1537.23 Q1322.61 1537.97 1319.94 1539.43 L1319.94 1534.02 Q1323.15 1532.78 1326.18 1532.17 Q1329.2 1531.54 1332.07 1531.54 Q1339.8 1531.54 1343.62 1535.55 Q1347.44 1539.56 1347.44 1547.71 Z" fill="#000000" fill-rule="nonzero" fill-opacity="1"></path><path clip-path="url(#clip290)" d="M1385.16 1533.76 L1385.16 1539.24 Q1382.67 1537.87 1380.16 1537.2 Q1377.68 1536.5 1375.13 1536.5 Q1369.43 1536.5 1366.28 1540.13 Q1363.13 1543.73 1363.13 1550.25 Q1363.13 1556.78 1366.28 1560.4 Q1369.43 1564 1375.13 1564 Q1377.68 1564 1380.16 1563.33 Q1382.67 1562.63 1385.16 1561.26 L1385.16 1566.68 Q1382.71 1567.82 1380.06 1568.39 Q1377.45 1568.97 1374.49 1568.97 Q1366.44 1568.97 1361.7 1563.91 Q1356.96 1558.85 1356.96 1550.25 Q1356.96 1541.53 1361.73 1536.53 Q1366.54 1531.54 1374.88 1531.54 Q1377.58 1531.54 1380.16 1532.11 Q1382.74 1532.65 1385.16 1533.76 Z" fill="#000000" fill-rule="nonzero" fill-opacity="1"></path><path clip-path="url(#clip290)" d="M1425.83 1548.76 L1425.83 1551.62 L1398.91 1551.62 Q1399.29 1557.67 1402.53 1560.85 Q1405.81 1564 1411.64 1564 Q1415.01 1564 1418.16 1563.17 Q1421.35 1562.35 1424.46 1560.69 L1424.46 1566.23 Q1421.31 1567.57 1418 1568.27 Q1414.69 1568.97 1411.29 1568.97 Q1402.76 1568.97 1397.76 1564 Q1392.79 1559.04 1392.79 1550.57 Q1392.79 1541.82 1397.51 1536.69 Q1402.25 1531.54 1410.27 1531.54 Q1417.46 1531.54 1421.63 1536.18 Q1425.83 1540.8 1425.83 1548.76 M1419.98 1547.04 Q1419.91 1542.23 1417.27 1539.37 Q1414.66 1536.5 1410.33 1536.5 Q1405.43 1536.5 1402.47 1539.27 Q1399.54 1542.04 1399.1 1547.07 L1419.98 1547.04 Z" fill="#000000" fill-rule="nonzero" fill-opacity="1"></path><path clip-path="url(#clip290)" d="M1441.11 1562.7 L1441.11 1581.6 L1435.22 1581.6 L1435.22 1532.4 L1441.11 1532.4 L1441.11 1537.81 Q1442.96 1534.62 1445.76 1533.1 Q1448.59 1531.54 1452.51 1531.54 Q1459 1531.54 1463.04 1536.69 Q1467.11 1541.85 1467.11 1550.25 Q1467.11 1558.65 1463.04 1563.81 Q1459 1568.97 1452.51 1568.97 Q1448.59 1568.97 1445.76 1567.44 Q1442.96 1565.88 1441.11 1562.7 M1461.04 1550.25 Q1461.04 1543.79 1458.36 1540.13 Q1455.72 1536.44 1451.07 1536.44 Q1446.43 1536.44 1443.75 1540.13 Q1441.11 1543.79 1441.11 1550.25 Q1441.11 1556.71 1443.75 1560.4 Q1446.43 1564.07 1451.07 1564.07 Q1455.72 1564.07 1458.36 1560.4 Q1461.04 1556.71 1461.04 1550.25 Z" fill="#000000" fill-rule="nonzero" fill-opacity="1"></path><path clip-path="url(#clip290)" d="M1482.62 1522.27 L1482.62 1532.4 L1494.68 1532.4 L1494.68 1536.95 L1482.62 1536.95 L1482.62 1556.3 Q1482.62 1560.66 1483.79 1561.9 Q1485 1563.14 1488.66 1563.14 L1494.68 1563.14 L1494.68 1568.04 L1488.66 1568.04 Q1481.88 1568.04 1479.3 1565.53 Q1476.73 1562.98 1476.73 1556.3 L1476.73 1536.95 L1472.43 1536.95 L1472.43 1532.4 L1476.73 1532.4 L1476.73 1522.27 L1482.62 1522.27 Z" fill="#000000" fill-rule="nonzero" fill-opacity="1"></path><path clip-path="url(#clip290)" d="M1518.58 1550.12 Q1511.48 1550.12 1508.75 1551.75 Q1506.01 1553.37 1506.01 1557.29 Q1506.01 1560.4 1508.05 1562.25 Q1510.11 1564.07 1513.65 1564.07 Q1518.52 1564.07 1521.45 1560.63 Q1524.41 1557.16 1524.41 1551.43 L1524.41 1550.12 L1518.58 1550.12 M1530.26 1547.71 L1530.26 1568.04 L1524.41 1568.04 L1524.41 1562.63 Q1522.4 1565.88 1519.41 1567.44 Q1516.42 1568.97 1512.09 1568.97 Q1506.61 1568.97 1503.37 1565.91 Q1500.15 1562.82 1500.15 1557.67 Q1500.15 1551.65 1504.16 1548.6 Q1508.21 1545.54 1516.19 1545.54 L1524.41 1545.54 L1524.41 1544.97 Q1524.41 1540.93 1521.73 1538.73 Q1519.09 1536.5 1514.28 1536.5 Q1511.23 1536.5 1508.33 1537.23 Q1505.44 1537.97 1502.76 1539.43 L1502.76 1534.02 Q1505.98 1532.78 1509 1532.17 Q1512.02 1531.54 1514.89 1531.54 Q1522.62 1531.54 1526.44 1535.55 Q1530.26 1539.56 1530.26 1547.71 Z" fill="#000000" fill-rule="nonzero" fill-opacity="1"></path><path clip-path="url(#clip290)" d="M1567.98 1533.76 L1567.98 1539.24 Q1565.5 1537.87 1562.98 1537.2 Q1560.5 1536.5 1557.95 1536.5 Q1552.26 1536.5 1549.1 1540.13 Q1545.95 1543.73 1545.95 1550.25 Q1545.95 1556.78 1549.1 1560.4 Q1552.26 1564 1557.95 1564 Q1560.5 1564 1562.98 1563.33 Q1565.5 1562.63 1567.98 1561.26 L1567.98 1566.68 Q1565.53 1567.82 1562.89 1568.39 Q1560.28 1568.97 1557.32 1568.97 Q1549.26 1568.97 1544.52 1563.91 Q1539.78 1558.85 1539.78 1550.25 Q1539.78 1541.53 1544.55 1536.53 Q1549.36 1531.54 1557.7 1531.54 Q1560.4 1531.54 1562.98 1532.11 Q1565.56 1532.65 1567.98 1533.76 Z" fill="#000000" fill-rule="nonzero" fill-opacity="1"></path><path clip-path="url(#clip290)" d="M1578.16 1532.4 L1584.02 1532.4 L1584.02 1568.04 L1578.16 1568.04 L1578.16 1532.4 M1578.16 1518.52 L1584.02 1518.52 L1584.02 1525.93 L1578.16 1525.93 L1578.16 1518.52 Z" fill="#000000" fill-rule="nonzero" fill-opacity="1"></path><path clip-path="url(#clip290)" d="M1610.09 1536.5 Q1605.38 1536.5 1602.64 1540.19 Q1599.9 1543.85 1599.9 1550.25 Q1599.9 1556.65 1602.61 1560.34 Q1605.35 1564 1610.09 1564 Q1614.77 1564 1617.5 1560.31 Q1620.24 1556.62 1620.24 1550.25 Q1620.24 1543.92 1617.5 1540.23 Q1614.77 1536.5 1610.09 1536.5 M1610.09 1531.54 Q1617.73 1531.54 1622.09 1536.5 Q1626.45 1541.47 1626.45 1550.25 Q1626.45 1559 1622.09 1564 Q1617.73 1568.97 1610.09 1568.97 Q1602.42 1568.97 1598.06 1564 Q1593.73 1559 1593.73 1550.25 Q1593.73 1541.47 1598.06 1536.5 Q1602.42 1531.54 1610.09 1531.54 M1614.51 1515.91 L1620.85 1515.91 L1610.47 1527.88 L1605.6 1527.88 L1614.51 1515.91 Z" fill="#000000" fill-rule="nonzero" fill-opacity="1"></path><path clip-path="url(#clip290)" d="M1665.79 1546.53 L1665.79 1568.04 L1659.93 1568.04 L1659.93 1546.72 Q1659.93 1541.66 1657.96 1539.14 Q1655.99 1536.63 1652.04 1536.63 Q1647.3 1536.63 1644.56 1539.65 Q1641.82 1542.68 1641.82 1547.9 L1641.82 1568.04 L1635.93 1568.04 L1635.93 1532.4 L1641.82 1532.4 L1641.82 1537.93 Q1643.92 1534.72 1646.75 1533.13 Q1649.62 1531.54 1653.34 1531.54 Q1659.49 1531.54 1662.64 1535.36 Q1665.79 1539.14 1665.79 1546.53 Z" fill="#000000" fill-rule="nonzero" fill-opacity="1"></path><polyline clip-path="url(#clip292)" style="stroke:#000000; stroke-linecap:round; stroke-linejoin:round; stroke-width:2; stroke-opacity:0.1; fill:none" points="262.551,1423.18 2352.76,1423.18 "></polyline>
<polyline clip-path="url(#clip292)" style="stroke:#000000; stroke-linecap:round; stroke-linejoin:round; stroke-width:2; stroke-opacity:0.1; fill:none" points="262.551,1134.1 2352.76,1134.1 "></polyline>
<polyline clip-path="url(#clip292)" style="stroke:#000000; stroke-linecap:round; stroke-linejoin:round; stroke-width:2; stroke-opacity:0.1; fill:none" points="262.551,845.018 2352.76,845.018 "></polyline>
<polyline clip-path="url(#clip292)" style="stroke:#000000; stroke-linecap:round; stroke-linejoin:round; stroke-width:2; stroke-opacity:0.1; fill:none" points="262.551,555.937 2352.76,555.937 "></polyline>
<polyline clip-path="url(#clip292)" style="stroke:#000000; stroke-linecap:round; stroke-linejoin:round; stroke-width:2; stroke-opacity:0.1; fill:none" points="262.551,266.856 2352.76,266.856 "></polyline>
<polyline clip-path="url(#clip290)" style="stroke:#000000; stroke-linecap:round; stroke-linejoin:round; stroke-width:4; stroke-opacity:1; fill:none" points="262.551,1423.18 262.551,123.472 "></polyline>
<polyline clip-path="url(#clip290)" style="stroke:#000000; stroke-linecap:round; stroke-linejoin:round; stroke-width:4; stroke-opacity:1; fill:none" points="262.551,1423.18 281.449,1423.18 "></polyline>
<polyline clip-path="url(#clip290)" style="stroke:#000000; stroke-linecap:round; stroke-linejoin:round; stroke-width:4; stroke-opacity:1; fill:none" points="262.551,1134.1 281.449,1134.1 "></polyline>
<polyline clip-path="url(#clip290)" style="stroke:#000000; stroke-linecap:round; stroke-linejoin:round; stroke-width:4; stroke-opacity:1; fill:none" points="262.551,845.018 281.449,845.018 "></polyline>
<polyline clip-path="url(#clip290)" style="stroke:#000000; stroke-linecap:round; stroke-linejoin:round; stroke-width:4; stroke-opacity:1; fill:none" points="262.551,555.937 281.449,555.937 "></polyline>
<polyline clip-path="url(#clip290)" style="stroke:#000000; stroke-linecap:round; stroke-linejoin:round; stroke-width:4; stroke-opacity:1; fill:none" points="262.551,266.856 281.449,266.856 "></polyline>
<path clip-path="url(#clip290)" d="M214.607 1408.98 Q210.996 1408.98 209.167 1412.54 Q207.362 1416.08 207.362 1423.21 Q207.362 1430.32 209.167 1433.89 Q210.996 1437.43 214.607 1437.43 Q218.241 1437.43 220.047 1433.89 Q221.875 1430.32 221.875 1423.21 Q221.875 1416.08 220.047 1412.54 Q218.241 1408.98 214.607 1408.98 M214.607 1405.27 Q220.417 1405.27 223.473 1409.88 Q226.551 1414.46 226.551 1423.21 Q226.551 1431.94 223.473 1436.55 Q220.417 1441.13 214.607 1441.13 Q208.797 1441.13 205.718 1436.55 Q202.662 1431.94 202.662 1423.21 Q202.662 1414.46 205.718 1409.88 Q208.797 1405.27 214.607 1405.27 Z" fill="#000000" fill-rule="nonzero" fill-opacity="1"></path><path clip-path="url(#clip290)" d="M148.311 1147.44 L164.63 1147.44 L164.63 1151.38 L142.686 1151.38 L142.686 1147.44 Q145.348 1144.69 149.931 1140.06 Q154.538 1135.41 155.718 1134.06 Q157.964 1131.54 158.843 1129.8 Q159.746 1128.05 159.746 1126.36 Q159.746 1123.6 157.802 1121.87 Q155.88 1120.13 152.778 1120.13 Q150.579 1120.13 148.126 1120.89 Q145.695 1121.66 142.917 1123.21 L142.917 1118.49 Q145.741 1117.35 148.195 1116.77 Q150.649 1116.19 152.686 1116.19 Q158.056 1116.19 161.251 1118.88 Q164.445 1121.56 164.445 1126.06 Q164.445 1128.18 163.635 1130.11 Q162.848 1132 160.741 1134.6 Q160.163 1135.27 157.061 1138.49 Q153.959 1141.68 148.311 1147.44 Z" fill="#000000" fill-rule="nonzero" fill-opacity="1"></path><path clip-path="url(#clip290)" d="M174.491 1116.82 L192.848 1116.82 L192.848 1120.75 L178.774 1120.75 L178.774 1129.23 Q179.792 1128.88 180.811 1128.72 Q181.829 1128.53 182.848 1128.53 Q188.635 1128.53 192.014 1131.7 Q195.394 1134.87 195.394 1140.29 Q195.394 1145.87 191.922 1148.97 Q188.45 1152.05 182.13 1152.05 Q179.954 1152.05 177.686 1151.68 Q175.44 1151.31 173.033 1150.57 L173.033 1145.87 Q175.116 1147 177.339 1147.56 Q179.561 1148.12 182.038 1148.12 Q186.042 1148.12 188.38 1146.01 Q190.718 1143.9 190.718 1140.29 Q190.718 1136.68 188.38 1134.57 Q186.042 1132.47 182.038 1132.47 Q180.163 1132.47 178.288 1132.88 Q176.436 1133.3 174.491 1134.18 L174.491 1116.82 Z" fill="#000000" fill-rule="nonzero" fill-opacity="1"></path><path clip-path="url(#clip290)" d="M214.607 1119.9 Q210.996 1119.9 209.167 1123.46 Q207.362 1127 207.362 1134.13 Q207.362 1141.24 209.167 1144.8 Q210.996 1148.35 214.607 1148.35 Q218.241 1148.35 220.047 1144.8 Q221.875 1141.24 221.875 1134.13 Q221.875 1127 220.047 1123.46 Q218.241 1119.9 214.607 1119.9 M214.607 1116.19 Q220.417 1116.19 223.473 1120.8 Q226.551 1125.38 226.551 1134.13 Q226.551 1142.86 223.473 1147.47 Q220.417 1152.05 214.607 1152.05 Q208.797 1152.05 205.718 1147.47 Q202.662 1142.86 202.662 1134.13 Q202.662 1125.38 205.718 1120.8 Q208.797 1116.19 214.607 1116.19 Z" fill="#000000" fill-rule="nonzero" fill-opacity="1"></path><path clip-path="url(#clip290)" d="M144.329 827.738 L162.686 827.738 L162.686 831.673 L148.612 831.673 L148.612 840.145 Q149.63 839.798 150.649 839.636 Q151.667 839.451 152.686 839.451 Q158.473 839.451 161.852 842.622 Q165.232 845.794 165.232 851.21 Q165.232 856.789 161.76 859.891 Q158.288 862.969 151.968 862.969 Q149.792 862.969 147.524 862.599 Q145.279 862.229 142.871 861.488 L142.871 856.789 Q144.954 857.923 147.177 858.479 Q149.399 859.034 151.876 859.034 Q155.88 859.034 158.218 856.928 Q160.556 854.821 160.556 851.21 Q160.556 847.599 158.218 845.493 Q155.88 843.386 151.876 843.386 Q150.001 843.386 148.126 843.803 Q146.274 844.219 144.329 845.099 L144.329 827.738 Z" fill="#000000" fill-rule="nonzero" fill-opacity="1"></path><path clip-path="url(#clip290)" d="M184.445 830.817 Q180.834 830.817 179.005 834.382 Q177.2 837.923 177.2 845.053 Q177.2 852.159 179.005 855.724 Q180.834 859.266 184.445 859.266 Q188.079 859.266 189.885 855.724 Q191.713 852.159 191.713 845.053 Q191.713 837.923 189.885 834.382 Q188.079 830.817 184.445 830.817 M184.445 827.113 Q190.255 827.113 193.311 831.72 Q196.389 836.303 196.389 845.053 Q196.389 853.78 193.311 858.386 Q190.255 862.969 184.445 862.969 Q178.635 862.969 175.556 858.386 Q172.501 853.78 172.501 845.053 Q172.501 836.303 175.556 831.72 Q178.635 827.113 184.445 827.113 Z" fill="#000000" fill-rule="nonzero" fill-opacity="1"></path><path clip-path="url(#clip290)" d="M214.607 830.817 Q210.996 830.817 209.167 834.382 Q207.362 837.923 207.362 845.053 Q207.362 852.159 209.167 855.724 Q210.996 859.266 214.607 859.266 Q218.241 859.266 220.047 855.724 Q221.875 852.159 221.875 845.053 Q221.875 837.923 220.047 834.382 Q218.241 830.817 214.607 830.817 M214.607 827.113 Q220.417 827.113 223.473 831.72 Q226.551 836.303 226.551 845.053 Q226.551 853.78 223.473 858.386 Q220.417 862.969 214.607 862.969 Q208.797 862.969 205.718 858.386 Q202.662 853.78 202.662 845.053 Q202.662 836.303 205.718 831.72 Q208.797 827.113 214.607 827.113 Z" fill="#000000" fill-rule="nonzero" fill-opacity="1"></path><path clip-path="url(#clip290)" d="M143.103 538.657 L165.325 538.657 L165.325 540.648 L152.778 573.217 L147.894 573.217 L159.7 542.592 L143.103 542.592 L143.103 538.657 Z" fill="#000000" fill-rule="nonzero" fill-opacity="1"></path><path clip-path="url(#clip290)" d="M174.491 538.657 L192.848 538.657 L192.848 542.592 L178.774 542.592 L178.774 551.064 Q179.792 550.717 180.811 550.555 Q181.829 550.37 182.848 550.37 Q188.635 550.37 192.014 553.541 Q195.394 556.713 195.394 562.129 Q195.394 567.708 191.922 570.81 Q188.45 573.888 182.13 573.888 Q179.954 573.888 177.686 573.518 Q175.44 573.148 173.033 572.407 L173.033 567.708 Q175.116 568.842 177.339 569.398 Q179.561 569.953 182.038 569.953 Q186.042 569.953 188.38 567.847 Q190.718 565.74 190.718 562.129 Q190.718 558.518 188.38 556.412 Q186.042 554.305 182.038 554.305 Q180.163 554.305 178.288 554.722 Q176.436 555.139 174.491 556.018 L174.491 538.657 Z" fill="#000000" fill-rule="nonzero" fill-opacity="1"></path><path clip-path="url(#clip290)" d="M214.607 541.736 Q210.996 541.736 209.167 545.301 Q207.362 548.842 207.362 555.972 Q207.362 563.078 209.167 566.643 Q210.996 570.185 214.607 570.185 Q218.241 570.185 220.047 566.643 Q221.875 563.078 221.875 555.972 Q221.875 548.842 220.047 545.301 Q218.241 541.736 214.607 541.736 M214.607 538.032 Q220.417 538.032 223.473 542.639 Q226.551 547.222 226.551 555.972 Q226.551 564.699 223.473 569.305 Q220.417 573.888 214.607 573.888 Q208.797 573.888 205.718 569.305 Q202.662 564.699 202.662 555.972 Q202.662 547.222 205.718 542.639 Q208.797 538.032 214.607 538.032 Z" fill="#000000" fill-rule="nonzero" fill-opacity="1"></path><path clip-path="url(#clip290)" d="M114.931 280.201 L122.57 280.201 L122.57 253.835 L114.26 255.502 L114.26 251.243 L122.524 249.576 L127.2 249.576 L127.2 280.201 L134.839 280.201 L134.839 284.136 L114.931 284.136 L114.931 280.201 Z" fill="#000000" fill-rule="nonzero" fill-opacity="1"></path><path clip-path="url(#clip290)" d="M154.283 252.655 Q150.672 252.655 148.843 256.22 Q147.038 259.761 147.038 266.891 Q147.038 273.997 148.843 277.562 Q150.672 281.104 154.283 281.104 Q157.917 281.104 159.723 277.562 Q161.552 273.997 161.552 266.891 Q161.552 259.761 159.723 256.22 Q157.917 252.655 154.283 252.655 M154.283 248.951 Q160.093 248.951 163.149 253.558 Q166.227 258.141 166.227 266.891 Q166.227 275.618 163.149 280.224 Q160.093 284.808 154.283 284.808 Q148.473 284.808 145.394 280.224 Q142.339 275.618 142.339 266.891 Q142.339 258.141 145.394 253.558 Q148.473 248.951 154.283 248.951 Z" fill="#000000" fill-rule="nonzero" fill-opacity="1"></path><path clip-path="url(#clip290)" d="M184.445 252.655 Q180.834 252.655 179.005 256.22 Q177.2 259.761 177.2 266.891 Q177.2 273.997 179.005 277.562 Q180.834 281.104 184.445 281.104 Q188.079 281.104 189.885 277.562 Q191.713 273.997 191.713 266.891 Q191.713 259.761 189.885 256.22 Q188.079 252.655 184.445 252.655 M184.445 248.951 Q190.255 248.951 193.311 253.558 Q196.389 258.141 196.389 266.891 Q196.389 275.618 193.311 280.224 Q190.255 284.808 184.445 284.808 Q178.635 284.808 175.556 280.224 Q172.501 275.618 172.501 266.891 Q172.501 258.141 175.556 253.558 Q178.635 248.951 184.445 248.951 Z" fill="#000000" fill-rule="nonzero" fill-opacity="1"></path><path clip-path="url(#clip290)" d="M214.607 252.655 Q210.996 252.655 209.167 256.22 Q207.362 259.761 207.362 266.891 Q207.362 273.997 209.167 277.562 Q210.996 281.104 214.607 281.104 Q218.241 281.104 220.047 277.562 Q221.875 273.997 221.875 266.891 Q221.875 259.761 220.047 256.22 Q218.241 252.655 214.607 252.655 M214.607 248.951 Q220.417 248.951 223.473 253.558 Q226.551 258.141 226.551 266.891 Q226.551 275.618 223.473 280.224 Q220.417 284.808 214.607 284.808 Q208.797 284.808 205.718 280.224 Q202.662 275.618 202.662 266.891 Q202.662 258.141 205.718 253.558 Q208.797 248.951 214.607 248.951 Z" fill="#000000" fill-rule="nonzero" fill-opacity="1"></path><path clip-path="url(#clip290)" d="M16.4842 942.511 L16.4842 915.202 L21.895 915.202 L21.895 936.081 L35.8996 936.081 L35.8996 917.239 L41.3104 917.239 L41.3104 936.081 L64.0042 936.081 L64.0042 942.511 L16.4842 942.511 Z" fill="#000000" fill-rule="nonzero" fill-opacity="1"></path><path clip-path="url(#clip290)" d="M33.8307 889.357 Q33.2578 890.344 33.0032 891.521 Q32.7167 892.667 32.7167 894.068 Q32.7167 899.033 35.9632 901.706 Q39.1779 904.348 45.2253 904.348 L64.0042 904.348 L64.0042 910.236 L28.3562 910.236 L28.3562 904.348 L33.8944 904.348 Q30.6479 902.502 29.0883 899.542 Q27.4968 896.582 27.4968 892.349 Q27.4968 891.744 27.5923 891.012 Q27.656 890.28 27.8151 889.389 L33.8307 889.357 Z" fill="#000000" fill-rule="nonzero" fill-opacity="1"></path><path clip-path="url(#clip290)" d="M44.7161 854.155 L47.5806 854.155 L47.5806 881.081 Q53.6281 880.7 56.8109 877.453 Q59.9619 874.175 59.9619 868.35 Q59.9619 864.976 59.1344 861.825 Q58.3069 858.642 56.6518 855.523 L62.1899 855.523 Q63.5267 858.674 64.227 861.984 Q64.9272 865.295 64.9272 868.7 Q64.9272 877.23 59.9619 882.227 Q54.9967 887.193 46.5303 887.193 Q37.7774 887.193 32.6531 882.482 Q27.4968 877.739 27.4968 869.719 Q27.4968 862.525 32.1438 858.356 Q36.7589 854.155 44.7161 854.155 M42.9973 860.011 Q38.1912 860.075 35.3266 862.716 Q32.4621 865.326 32.4621 869.655 Q32.4621 874.557 35.2312 877.517 Q38.0002 880.445 43.0292 880.891 L42.9973 860.011 Z" fill="#000000" fill-rule="nonzero" fill-opacity="1"></path><path clip-path="url(#clip290)" d="M29.7248 818.889 L35.1993 818.889 Q33.8307 821.371 33.1623 823.886 Q32.4621 826.368 32.4621 828.915 Q32.4621 834.612 36.0905 837.763 Q39.6872 840.914 46.212 840.914 Q52.7369 840.914 56.3653 837.763 Q59.9619 834.612 59.9619 828.915 Q59.9619 826.368 59.2935 823.886 Q58.5933 821.371 57.2247 818.889 L62.6355 818.889 Q63.7814 821.339 64.3543 823.981 Q64.9272 826.591 64.9272 829.551 Q64.9272 837.604 59.8664 842.346 Q54.8057 847.089 46.212 847.089 Q37.491 847.089 32.4939 842.314 Q27.4968 837.508 27.4968 829.169 Q27.4968 826.464 28.0697 823.886 Q28.6108 821.307 29.7248 818.889 Z" fill="#000000" fill-rule="nonzero" fill-opacity="1"></path><path clip-path="url(#clip290)" d="M49.9359 809.308 L28.3562 809.308 L28.3562 803.452 L49.7131 803.452 Q54.7739 803.452 57.3202 801.478 Q59.8346 799.505 59.8346 795.558 Q59.8346 790.816 56.8109 788.079 Q53.7872 785.309 48.5673 785.309 L28.3562 785.309 L28.3562 779.453 L64.0042 779.453 L64.0042 785.309 L58.5296 785.309 Q61.7762 787.442 63.3676 790.275 Q64.9272 793.076 64.9272 796.8 Q64.9272 802.942 61.1078 806.125 Q57.2883 809.308 49.9359 809.308 M27.4968 794.572 L27.4968 794.572 Z" fill="#000000" fill-rule="nonzero" fill-opacity="1"></path><path clip-path="url(#clip290)" d="M44.7161 736.898 L47.5806 736.898 L47.5806 763.825 Q53.6281 763.443 56.8109 760.197 Q59.9619 756.918 59.9619 751.094 Q59.9619 747.72 59.1344 744.569 Q58.3069 741.386 56.6518 738.267 L62.1899 738.267 Q63.5267 741.418 64.227 744.728 Q64.9272 748.038 64.9272 751.444 Q64.9272 759.974 59.9619 764.971 Q54.9967 769.936 46.5303 769.936 Q37.7774 769.936 32.6531 765.226 Q27.4968 760.483 27.4968 752.462 Q27.4968 745.269 32.1438 741.1 Q36.7589 736.898 44.7161 736.898 M42.9973 742.755 Q38.1912 742.818 35.3266 745.46 Q32.4621 748.07 32.4621 752.399 Q32.4621 757.3 35.2312 760.26 Q38.0002 763.189 43.0292 763.634 L42.9973 742.755 Z" fill="#000000" fill-rule="nonzero" fill-opacity="1"></path><path clip-path="url(#clip290)" d="M42.4881 697.654 L64.0042 697.654 L64.0042 703.51 L42.679 703.51 Q37.6183 703.51 35.1038 705.483 Q32.5894 707.457 32.5894 711.404 Q32.5894 716.146 35.6131 718.883 Q38.6368 721.621 43.8567 721.621 L64.0042 721.621 L64.0042 727.509 L28.3562 727.509 L28.3562 721.621 L33.8944 721.621 Q30.6797 719.52 29.0883 716.687 Q27.4968 713.823 27.4968 710.099 Q27.4968 703.956 31.3163 700.805 Q35.1038 697.654 42.4881 697.654 Z" fill="#000000" fill-rule="nonzero" fill-opacity="1"></path><path clip-path="url(#clip290)" d="M29.7248 660.319 L35.1993 660.319 Q33.8307 662.801 33.1623 665.316 Q32.4621 667.798 32.4621 670.345 Q32.4621 676.042 36.0905 679.193 Q39.6872 682.344 46.212 682.344 Q52.7369 682.344 56.3653 679.193 Q59.9619 676.042 59.9619 670.345 Q59.9619 667.798 59.2935 665.316 Q58.5933 662.801 57.2247 660.319 L62.6355 660.319 Q63.7814 662.77 64.3543 665.411 Q64.9272 668.021 64.9272 670.981 Q64.9272 679.034 59.8664 683.776 Q54.8057 688.519 46.212 688.519 Q37.491 688.519 32.4939 683.745 Q27.4968 678.938 27.4968 670.599 Q27.4968 667.894 28.0697 665.316 Q28.6108 662.738 29.7248 660.319 Z" fill="#000000" fill-rule="nonzero" fill-opacity="1"></path><path clip-path="url(#clip290)" d="M28.3562 650.134 L28.3562 644.277 L64.0042 644.277 L64.0042 650.134 L28.3562 650.134 M14.479 650.134 L14.479 644.277 L21.895 644.277 L21.895 650.134 L14.479 650.134 Z" fill="#000000" fill-rule="nonzero" fill-opacity="1"></path><path clip-path="url(#clip290)" d="M46.0847 615.822 Q46.0847 622.92 47.7079 625.658 Q49.3312 628.395 53.2461 628.395 Q56.3653 628.395 58.2114 626.358 Q60.0256 624.289 60.0256 620.756 Q60.0256 615.886 56.5881 612.958 Q53.1188 609.998 47.3897 609.998 L46.0847 609.998 L46.0847 615.822 M43.6657 604.141 L64.0042 604.141 L64.0042 609.998 L58.5933 609.998 Q61.8398 612.003 63.3994 614.995 Q64.9272 617.987 64.9272 622.316 Q64.9272 627.79 61.8716 631.037 Q58.7843 634.251 53.6281 634.251 Q47.6125 634.251 44.5569 630.241 Q41.5014 626.199 41.5014 618.21 L41.5014 609.998 L40.9285 609.998 Q36.8862 609.998 34.6901 612.671 Q32.4621 615.313 32.4621 620.119 Q32.4621 623.175 33.1941 626.071 Q33.9262 628.968 35.3903 631.641 L29.9795 631.641 Q28.7381 628.427 28.1334 625.403 Q27.4968 622.379 27.4968 619.515 Q27.4968 611.78 31.5072 607.961 Q35.5176 604.141 43.6657 604.141 Z" fill="#000000" fill-rule="nonzero" fill-opacity="1"></path><path clip-path="url(#clip290)" d="M765.825 18.8205 L765.825 65.8515 L775.709 65.8515 Q788.226 65.8515 794.019 60.1802 Q799.852 54.509 799.852 42.2752 Q799.852 30.1225 794.019 24.4918 Q788.226 18.8205 775.709 18.8205 L765.825 18.8205 M757.642 12.096 L774.453 12.096 Q792.034 12.096 800.258 19.4281 Q808.481 26.7198 808.481 42.2752 Q808.481 57.9117 800.217 65.2439 Q791.953 72.576 774.453 72.576 L757.642 72.576 L757.642 12.096 Z" fill="#000000" fill-rule="nonzero" fill-opacity="1"></path><path clip-path="url(#clip290)" d="M821.201 27.2059 L828.654 27.2059 L828.654 72.576 L821.201 72.576 L821.201 27.2059 M821.201 9.54393 L828.654 9.54393 L828.654 18.9825 L821.201 18.9825 L821.201 9.54393 Z" fill="#000000" fill-rule="nonzero" fill-opacity="1"></path><path clip-path="url(#clip290)" d="M873.174 28.5427 L873.174 35.5912 Q870.014 33.9709 866.611 33.1607 Q863.209 32.3505 859.563 32.3505 Q854.013 32.3505 851.218 34.0519 Q848.463 35.7533 848.463 39.156 Q848.463 41.7486 850.448 43.2475 Q852.433 44.7058 858.429 46.0426 L860.981 46.6097 Q868.92 48.3111 872.242 51.4303 Q875.604 54.509 875.604 60.0587 Q875.604 66.3781 870.581 70.0644 Q865.599 73.7508 856.849 73.7508 Q853.203 73.7508 849.233 73.0216 Q845.304 72.3329 840.929 70.9151 L840.929 63.2184 Q845.061 65.3654 849.071 66.4591 Q853.081 67.5124 857.011 67.5124 Q862.277 67.5124 865.113 65.73 Q867.948 63.9071 867.948 60.6258 Q867.948 57.5877 865.882 55.9673 Q863.857 54.3469 856.93 52.8481 L854.337 52.2405 Q847.41 50.7821 844.331 47.7845 Q841.253 44.7463 841.253 39.4801 Q841.253 33.0797 845.79 29.5959 Q850.327 26.1121 858.672 26.1121 Q862.804 26.1121 866.449 26.7198 Q870.095 27.3274 873.174 28.5427 Z" fill="#000000" fill-rule="nonzero" fill-opacity="1"></path><path clip-path="url(#clip290)" d="M894.846 14.324 L894.846 27.2059 L910.199 27.2059 L910.199 32.9987 L894.846 32.9987 L894.846 57.6282 Q894.846 63.1779 896.345 64.7578 Q897.884 66.3376 902.543 66.3376 L910.199 66.3376 L910.199 72.576 L902.543 72.576 Q893.914 72.576 890.633 69.3758 Q887.352 66.1351 887.352 57.6282 L887.352 32.9987 L881.883 32.9987 L881.883 27.2059 L887.352 27.2059 L887.352 14.324 L894.846 14.324 Z" fill="#000000" fill-rule="nonzero" fill-opacity="1"></path><path clip-path="url(#clip290)" d="M946.293 34.1734 Q945.037 33.4443 943.538 33.1202 Q942.08 32.7556 940.297 32.7556 Q933.978 32.7556 930.575 36.8875 Q927.213 40.9789 927.213 48.6757 L927.213 72.576 L919.719 72.576 L919.719 27.2059 L927.213 27.2059 L927.213 34.2544 Q929.562 30.1225 933.33 28.1376 Q937.097 26.1121 942.485 26.1121 Q943.254 26.1121 944.186 26.2337 Q945.118 26.3147 946.252 26.5172 L946.293 34.1734 Z" fill="#000000" fill-rule="nonzero" fill-opacity="1"></path><path clip-path="url(#clip290)" d="M954.111 27.2059 L961.565 27.2059 L961.565 72.576 L954.111 72.576 L954.111 27.2059 M954.111 9.54393 L961.565 9.54393 L961.565 18.9825 L954.111 18.9825 L954.111 9.54393 Z" fill="#000000" fill-rule="nonzero" fill-opacity="1"></path><path clip-path="url(#clip290)" d="M1009.73 49.9314 Q1009.73 41.7081 1006.33 37.0496 Q1002.96 32.3505 997.05 32.3505 Q991.136 32.3505 987.733 37.0496 Q984.371 41.7081 984.371 49.9314 Q984.371 58.1548 987.733 62.8538 Q991.136 67.5124 997.05 67.5124 Q1002.96 67.5124 1006.33 62.8538 Q1009.73 58.1548 1009.73 49.9314 M984.371 34.0924 Q986.721 30.0415 990.285 28.0971 Q993.891 26.1121 998.873 26.1121 Q1007.14 26.1121 1012.28 32.6746 Q1017.47 39.2371 1017.47 49.9314 Q1017.47 60.6258 1012.28 67.1883 Q1007.14 73.7508 998.873 73.7508 Q993.891 73.7508 990.285 71.8063 Q986.721 69.8214 984.371 65.7705 L984.371 72.576 L976.877 72.576 L976.877 9.54393 L984.371 9.54393 L984.371 34.0924 Z" fill="#000000" fill-rule="nonzero" fill-opacity="1"></path><path clip-path="url(#clip290)" d="M1029.05 54.671 L1029.05 27.2059 L1036.51 27.2059 L1036.51 54.3874 Q1036.51 60.8284 1039.02 64.0691 Q1041.53 67.2693 1046.55 67.2693 Q1052.59 67.2693 1056.07 63.421 Q1059.6 59.5726 1059.6 52.9291 L1059.6 27.2059 L1067.05 27.2059 L1067.05 72.576 L1059.6 72.576 L1059.6 65.6084 Q1056.88 69.7404 1053.28 71.7658 Q1049.71 73.7508 1044.97 73.7508 Q1037.15 73.7508 1033.1 68.8897 Q1029.05 64.0286 1029.05 54.671 M1047.81 26.1121 L1047.81 26.1121 Z" fill="#000000" fill-rule="nonzero" fill-opacity="1"></path><path clip-path="url(#clip290)" d="M1115.05 28.9478 L1115.05 35.9153 Q1111.89 34.1734 1108.69 33.3227 Q1105.53 32.4315 1102.29 32.4315 Q1095.04 32.4315 1091.03 37.0496 Q1087.02 41.6271 1087.02 49.9314 Q1087.02 58.2358 1091.03 62.8538 Q1095.04 67.4314 1102.29 67.4314 Q1105.53 67.4314 1108.69 66.5807 Q1111.89 65.6895 1115.05 63.9476 L1115.05 70.8341 Q1111.93 72.2924 1108.57 73.0216 Q1105.25 73.7508 1101.48 73.7508 Q1091.23 73.7508 1085.2 67.3098 Q1079.16 60.8689 1079.16 49.9314 Q1079.16 38.832 1085.24 32.472 Q1091.36 26.1121 1101.97 26.1121 Q1105.41 26.1121 1108.69 26.8413 Q1111.97 27.5299 1115.05 28.9478 Z" fill="#000000" fill-rule="nonzero" fill-opacity="1"></path><path clip-path="url(#clip290)" d="M1128.02 27.2059 L1135.47 27.2059 L1135.47 72.576 L1128.02 72.576 L1128.02 27.2059 M1128.02 9.54393 L1135.47 9.54393 L1135.47 18.9825 L1128.02 18.9825 L1128.02 9.54393 Z" fill="#000000" fill-rule="nonzero" fill-opacity="1"></path><path clip-path="url(#clip290)" d="M1168.65 32.4315 Q1162.65 32.4315 1159.17 37.1306 Q1155.68 41.7891 1155.68 49.9314 Q1155.68 58.0738 1159.13 62.7728 Q1162.61 67.4314 1168.65 67.4314 Q1174.6 67.4314 1178.09 62.7323 Q1181.57 58.0333 1181.57 49.9314 Q1181.57 41.8701 1178.09 37.1711 Q1174.6 32.4315 1168.65 32.4315 M1168.65 26.1121 Q1178.37 26.1121 1183.92 32.4315 Q1189.47 38.7509 1189.47 49.9314 Q1189.47 61.0714 1183.92 67.4314 Q1178.37 73.7508 1168.65 73.7508 Q1158.88 73.7508 1153.33 67.4314 Q1147.83 61.0714 1147.83 49.9314 Q1147.83 38.7509 1153.33 32.4315 Q1158.88 26.1121 1168.65 26.1121 M1174.28 6.22219 L1182.34 6.22219 L1169.13 21.4536 L1162.94 21.4536 L1174.28 6.22219 Z" fill="#000000" fill-rule="nonzero" fill-opacity="1"></path><path clip-path="url(#clip290)" d="M1239.54 45.1919 L1239.54 72.576 L1232.08 72.576 L1232.08 45.4349 Q1232.08 38.994 1229.57 35.7938 Q1227.06 32.5936 1222.04 32.5936 Q1216 32.5936 1212.52 36.4419 Q1209.03 40.2903 1209.03 46.9338 L1209.03 72.576 L1201.54 72.576 L1201.54 27.2059 L1209.03 27.2059 L1209.03 34.2544 Q1211.71 30.163 1215.31 28.1376 Q1218.96 26.1121 1223.7 26.1121 Q1231.52 26.1121 1235.53 30.9732 Q1239.54 35.7938 1239.54 45.1919 Z" fill="#000000" fill-rule="nonzero" fill-opacity="1"></path><path clip-path="url(#clip290)" d="M1310.63 34.0924 L1310.63 9.54393 L1318.08 9.54393 L1318.08 72.576 L1310.63 72.576 L1310.63 65.7705 Q1308.28 69.8214 1304.68 71.8063 Q1301.11 73.7508 1296.09 73.7508 Q1287.86 73.7508 1282.68 67.1883 Q1277.54 60.6258 1277.54 49.9314 Q1277.54 39.2371 1282.68 32.6746 Q1287.86 26.1121 1296.09 26.1121 Q1301.11 26.1121 1304.68 28.0971 Q1308.28 30.0415 1310.63 34.0924 M1285.23 49.9314 Q1285.23 58.1548 1288.59 62.8538 Q1292 67.5124 1297.91 67.5124 Q1303.83 67.5124 1307.23 62.8538 Q1310.63 58.1548 1310.63 49.9314 Q1310.63 41.7081 1307.23 37.0496 Q1303.83 32.3505 1297.91 32.3505 Q1292 32.3505 1288.59 37.0496 Q1285.23 41.7081 1285.23 49.9314 Z" fill="#000000" fill-rule="nonzero" fill-opacity="1"></path><path clip-path="url(#clip290)" d="M1372.25 48.0275 L1372.25 51.6733 L1337.97 51.6733 Q1338.46 59.3701 1342.59 63.421 Q1346.77 67.4314 1354.18 67.4314 Q1358.47 67.4314 1362.48 66.3781 Q1366.53 65.3249 1370.5 63.2184 L1370.5 70.267 Q1366.49 71.9684 1362.28 72.8596 Q1358.07 73.7508 1353.73 73.7508 Q1342.88 73.7508 1336.52 67.4314 Q1330.2 61.1119 1330.2 50.3365 Q1330.2 39.1965 1336.19 32.6746 Q1342.23 26.1121 1352.44 26.1121 Q1361.59 26.1121 1366.9 32.0264 Q1372.25 37.9003 1372.25 48.0275 M1364.79 45.84 Q1364.71 39.7232 1361.35 36.0774 Q1358.03 32.4315 1352.52 32.4315 Q1346.28 32.4315 1342.51 35.9558 Q1338.78 39.4801 1338.22 45.8805 L1364.79 45.84 Z" fill="#000000" fill-rule="nonzero" fill-opacity="1"></path><path clip-path="url(#clip290)" d="M1402.79 12.096 L1453.95 12.096 L1453.95 18.9825 L1432.48 18.9825 L1432.48 72.576 L1424.26 72.576 L1424.26 18.9825 L1402.79 18.9825 L1402.79 12.096 Z" fill="#000000" fill-rule="nonzero" fill-opacity="1"></path><path clip-path="url(#clip290)" d="M1452.74 62.2867 L1461.28 62.2867 L1461.28 72.576 L1452.74 72.576 L1452.74 62.2867 Z" fill="#000000" fill-rule="nonzero" fill-opacity="1"></path><path clip-path="url(#clip290)" d="M1522.33 9.62495 Q1516.9 18.942 1514.27 28.0566 Q1511.64 37.1711 1511.64 46.5287 Q1511.64 55.8863 1514.27 65.0818 Q1516.94 74.2369 1522.33 83.5134 L1515.85 83.5134 Q1509.77 73.9938 1506.74 64.7983 Q1503.74 55.6027 1503.74 46.5287 Q1503.74 37.4952 1506.74 28.3401 Q1509.73 19.1851 1515.85 9.62495 L1522.33 9.62495 Z" fill="#000000" fill-rule="nonzero" fill-opacity="1"></path><path clip-path="url(#clip290)" d="M1555.35 43.8551 Q1549.51 43.8551 1546.15 46.9743 Q1542.83 50.0935 1542.83 55.5622 Q1542.83 61.0309 1546.15 64.1501 Q1549.51 67.2693 1555.35 67.2693 Q1561.18 67.2693 1564.54 64.1501 Q1567.9 60.9904 1567.9 55.5622 Q1567.9 50.0935 1564.54 46.9743 Q1561.22 43.8551 1555.35 43.8551 M1547.16 40.3713 Q1541.9 39.075 1538.94 35.4697 Q1536.02 31.8644 1536.02 26.6793 Q1536.02 19.4281 1541.17 15.2152 Q1546.35 11.0023 1555.35 11.0023 Q1564.38 11.0023 1569.52 15.2152 Q1574.67 19.4281 1574.67 26.6793 Q1574.67 31.8644 1571.71 35.4697 Q1568.8 39.075 1563.57 40.3713 Q1569.48 41.7486 1572.76 45.759 Q1576.09 49.7694 1576.09 55.5622 Q1576.09 64.3527 1570.7 69.0517 Q1565.35 73.7508 1555.35 73.7508 Q1545.34 73.7508 1539.95 69.0517 Q1534.61 64.3527 1534.61 55.5622 Q1534.61 49.7694 1537.93 45.759 Q1541.25 41.7486 1547.16 40.3713 M1544.17 27.4489 Q1544.17 32.148 1547.08 34.7811 Q1550.04 37.4142 1555.35 37.4142 Q1560.61 37.4142 1563.57 34.7811 Q1566.57 32.148 1566.57 27.4489 Q1566.57 22.7499 1563.57 20.1168 Q1560.61 17.4837 1555.35 17.4837 Q1550.04 17.4837 1547.08 20.1168 Q1544.17 22.7499 1544.17 27.4489 Z" fill="#000000" fill-rule="nonzero" fill-opacity="1"></path><path clip-path="url(#clip290)" d="M1608.13 17.4837 Q1601.81 17.4837 1598.61 23.7221 Q1595.45 29.92 1595.45 42.3968 Q1595.45 54.833 1598.61 61.0714 Q1601.81 67.2693 1608.13 67.2693 Q1614.49 67.2693 1617.65 61.0714 Q1620.85 54.833 1620.85 42.3968 Q1620.85 29.92 1617.65 23.7221 Q1614.49 17.4837 1608.13 17.4837 M1608.13 11.0023 Q1618.3 11.0023 1623.64 19.0636 Q1629.03 27.0843 1629.03 42.3968 Q1629.03 57.6687 1623.64 65.73 Q1618.3 73.7508 1608.13 73.7508 Q1597.96 73.7508 1592.57 65.73 Q1587.23 57.6687 1587.23 42.3968 Q1587.23 27.0843 1592.57 19.0636 Q1597.96 11.0023 1608.13 11.0023 Z" fill="#000000" fill-rule="nonzero" fill-opacity="1"></path><path clip-path="url(#clip290)" d="M1701.3 49.9314 Q1701.3 41.7081 1697.9 37.0496 Q1694.54 32.3505 1688.62 32.3505 Q1682.71 32.3505 1679.3 37.0496 Q1675.94 41.7081 1675.94 49.9314 Q1675.94 58.1548 1679.3 62.8538 Q1682.71 67.5124 1688.62 67.5124 Q1694.54 67.5124 1697.9 62.8538 Q1701.3 58.1548 1701.3 49.9314 M1675.94 34.0924 Q1678.29 30.0415 1681.86 28.0971 Q1685.46 26.1121 1690.44 26.1121 Q1698.71 26.1121 1703.85 32.6746 Q1709.04 39.2371 1709.04 49.9314 Q1709.04 60.6258 1703.85 67.1883 Q1698.71 73.7508 1690.44 73.7508 Q1685.46 73.7508 1681.86 71.8063 Q1678.29 69.8214 1675.94 65.7705 L1675.94 72.576 L1668.45 72.576 L1668.45 9.54393 L1675.94 9.54393 L1675.94 34.0924 Z" fill="#000000" fill-rule="nonzero" fill-opacity="1"></path><path clip-path="url(#clip290)" d="M1721.39 27.2059 L1728.85 27.2059 L1728.85 72.576 L1721.39 72.576 L1721.39 27.2059 M1721.39 9.54393 L1728.85 9.54393 L1728.85 18.9825 L1721.39 18.9825 L1721.39 9.54393 Z" fill="#000000" fill-rule="nonzero" fill-opacity="1"></path><path clip-path="url(#clip290)" d="M1782.16 45.1919 L1782.16 72.576 L1774.7 72.576 L1774.7 45.4349 Q1774.7 38.994 1772.19 35.7938 Q1769.68 32.5936 1764.66 32.5936 Q1758.62 32.5936 1755.14 36.4419 Q1751.65 40.2903 1751.65 46.9338 L1751.65 72.576 L1744.16 72.576 L1744.16 27.2059 L1751.65 27.2059 L1751.65 34.2544 Q1754.33 30.163 1757.93 28.1376 Q1761.58 26.1121 1766.32 26.1121 Q1774.14 26.1121 1778.15 30.9732 Q1782.16 35.7938 1782.16 45.1919 Z" fill="#000000" fill-rule="nonzero" fill-opacity="1"></path><path clip-path="url(#clip290)" d="M1825.95 28.5427 L1825.95 35.5912 Q1822.79 33.9709 1819.38 33.1607 Q1815.98 32.3505 1812.34 32.3505 Q1806.79 32.3505 1803.99 34.0519 Q1801.24 35.7533 1801.24 39.156 Q1801.24 41.7486 1803.22 43.2475 Q1805.21 44.7058 1811.2 46.0426 L1813.75 46.6097 Q1821.69 48.3111 1825.01 51.4303 Q1828.38 54.509 1828.38 60.0587 Q1828.38 66.3781 1823.35 70.0644 Q1818.37 73.7508 1809.62 73.7508 Q1805.98 73.7508 1802.01 73.0216 Q1798.08 72.3329 1793.7 70.9151 L1793.7 63.2184 Q1797.83 65.3654 1801.84 66.4591 Q1805.85 67.5124 1809.78 67.5124 Q1815.05 67.5124 1817.89 65.73 Q1820.72 63.9071 1820.72 60.6258 Q1820.72 57.5877 1818.65 55.9673 Q1816.63 54.3469 1809.7 52.8481 L1807.11 52.2405 Q1800.18 50.7821 1797.1 47.7845 Q1794.03 44.7463 1794.03 39.4801 Q1794.03 33.0797 1798.56 29.5959 Q1803.1 26.1121 1811.44 26.1121 Q1815.58 26.1121 1819.22 26.7198 Q1822.87 27.3274 1825.95 28.5427 Z" fill="#000000" fill-rule="nonzero" fill-opacity="1"></path><path clip-path="url(#clip290)" d="M1839.07 9.62495 L1845.55 9.62495 Q1851.63 19.1851 1854.63 28.3401 Q1857.67 37.4952 1857.67 46.5287 Q1857.67 55.6027 1854.63 64.7983 Q1851.63 73.9938 1845.55 83.5134 L1839.07 83.5134 Q1844.46 74.2369 1847.09 65.0818 Q1849.77 55.8863 1849.77 46.5287 Q1849.77 37.1711 1847.09 28.0566 Q1844.46 18.942 1839.07 9.62495 Z" fill="#000000" fill-rule="nonzero" fill-opacity="1"></path><path clip-path="url(#clip292)" d="M262.551 123.472 L262.551 1423.18 L290.054 1423.18 L290.054 123.472 L262.551 123.472 L262.551 123.472  Z" fill="#0000ff" fill-rule="evenodd" fill-opacity="0.5"></path>
<polyline clip-path="url(#clip292)" style="stroke:#008000; stroke-linecap:round; stroke-linejoin:round; stroke-width:8; stroke-opacity:0.5; fill:none" points="262.551,123.472 262.551,1423.18 290.054,1423.18 290.054,123.472 262.551,123.472 "></polyline>
<path clip-path="url(#clip292)" d="M290.054 266.856 L290.054 1423.18 L317.557 1423.18 L317.557 266.856 L290.054 266.856 L290.054 266.856  Z" fill="#0000ff" fill-rule="evenodd" fill-opacity="0.5"></path>
<polyline clip-path="url(#clip292)" style="stroke:#008000; stroke-linecap:round; stroke-linejoin:round; stroke-width:8; stroke-opacity:0.5; fill:none" points="290.054,266.856 290.054,1423.18 317.557,1423.18 317.557,266.856 290.054,266.856 "></polyline>
<path clip-path="url(#clip292)" d="M317.557 391.739 L317.557 1423.18 L345.059 1423.18 L345.059 391.739 L317.557 391.739 L317.557 391.739  Z" fill="#0000ff" fill-rule="evenodd" fill-opacity="0.5"></path>
<polyline clip-path="url(#clip292)" style="stroke:#008000; stroke-linecap:round; stroke-linejoin:round; stroke-width:8; stroke-opacity:0.5; fill:none" points="317.557,391.739 317.557,1423.18 345.059,1423.18 345.059,391.739 317.557,391.739 "></polyline>
<path clip-path="url(#clip292)" d="M345.059 564.031 L345.059 1423.18 L372.562 1423.18 L372.562 564.031 L345.059 564.031 L345.059 564.031  Z" fill="#0000ff" fill-rule="evenodd" fill-opacity="0.5"></path>
<polyline clip-path="url(#clip292)" style="stroke:#008000; stroke-linecap:round; stroke-linejoin:round; stroke-width:8; stroke-opacity:0.5; fill:none" points="345.059,564.031 345.059,1423.18 372.562,1423.18 372.562,564.031 345.059,564.031 "></polyline>
<path clip-path="url(#clip292)" d="M372.562 590.627 L372.562 1423.18 L400.065 1423.18 L400.065 590.627 L372.562 590.627 L372.562 590.627  Z" fill="#0000ff" fill-rule="evenodd" fill-opacity="0.5"></path>
<polyline clip-path="url(#clip292)" style="stroke:#008000; stroke-linecap:round; stroke-linejoin:round; stroke-width:8; stroke-opacity:0.5; fill:none" points="372.562,590.627 372.562,1423.18 400.065,1423.18 400.065,590.627 372.562,590.627 "></polyline>
<path clip-path="url(#clip292)" d="M400.065 731.698 L400.065 1423.18 L427.567 1423.18 L427.567 731.698 L400.065 731.698 L400.065 731.698  Z" fill="#0000ff" fill-rule="evenodd" fill-opacity="0.5"></path>
<polyline clip-path="url(#clip292)" style="stroke:#008000; stroke-linecap:round; stroke-linejoin:round; stroke-width:8; stroke-opacity:0.5; fill:none" points="400.065,731.698 400.065,1423.18 427.567,1423.18 427.567,731.698 400.065,731.698 "></polyline>
<path clip-path="url(#clip292)" d="M427.567 786.046 L427.567 1423.18 L455.07 1423.18 L455.07 786.046 L427.567 786.046 L427.567 786.046  Z" fill="#0000ff" fill-rule="evenodd" fill-opacity="0.5"></path>
<polyline clip-path="url(#clip292)" style="stroke:#008000; stroke-linecap:round; stroke-linejoin:round; stroke-width:8; stroke-opacity:0.5; fill:none" points="427.567,786.046 427.567,1423.18 455.07,1423.18 455.07,786.046 427.567,786.046 "></polyline>
<path clip-path="url(#clip292)" d="M455.07 846.174 L455.07 1423.18 L482.573 1423.18 L482.573 846.174 L455.07 846.174 L455.07 846.174  Z" fill="#0000ff" fill-rule="evenodd" fill-opacity="0.5"></path>
<polyline clip-path="url(#clip292)" style="stroke:#008000; stroke-linecap:round; stroke-linejoin:round; stroke-width:8; stroke-opacity:0.5; fill:none" points="455.07,846.174 455.07,1423.18 482.573,1423.18 482.573,846.174 455.07,846.174 "></polyline>
<path clip-path="url(#clip292)" d="M482.573 902.834 L482.573 1423.18 L510.075 1423.18 L510.075 902.834 L482.573 902.834 L482.573 902.834  Z" fill="#0000ff" fill-rule="evenodd" fill-opacity="0.5"></path>
<polyline clip-path="url(#clip292)" style="stroke:#008000; stroke-linecap:round; stroke-linejoin:round; stroke-width:8; stroke-opacity:0.5; fill:none" points="482.573,902.834 482.573,1423.18 510.075,1423.18 510.075,902.834 482.573,902.834 "></polyline>
<path clip-path="url(#clip292)" d="M510.075 1001.12 L510.075 1423.18 L537.578 1423.18 L537.578 1001.12 L510.075 1001.12 L510.075 1001.12  Z" fill="#0000ff" fill-rule="evenodd" fill-opacity="0.5"></path>
<polyline clip-path="url(#clip292)" style="stroke:#008000; stroke-linecap:round; stroke-linejoin:round; stroke-width:8; stroke-opacity:0.5; fill:none" points="510.075,1001.12 510.075,1423.18 537.578,1423.18 537.578,1001.12 510.075,1001.12 "></polyline>
<path clip-path="url(#clip292)" d="M537.578 991.871 L537.578 1423.18 L565.081 1423.18 L565.081 991.871 L537.578 991.871 L537.578 991.871  Z" fill="#0000ff" fill-rule="evenodd" fill-opacity="0.5"></path>
<polyline clip-path="url(#clip292)" style="stroke:#008000; stroke-linecap:round; stroke-linejoin:round; stroke-width:8; stroke-opacity:0.5; fill:none" points="537.578,991.871 537.578,1423.18 565.081,1423.18 565.081,991.871 537.578,991.871 "></polyline>
<path clip-path="url(#clip292)" d="M565.081 1079.75 L565.081 1423.18 L592.584 1423.18 L592.584 1079.75 L565.081 1079.75 L565.081 1079.75  Z" fill="#0000ff" fill-rule="evenodd" fill-opacity="0.5"></path>
<polyline clip-path="url(#clip292)" style="stroke:#008000; stroke-linecap:round; stroke-linejoin:round; stroke-width:8; stroke-opacity:0.5; fill:none" points="565.081,1079.75 565.081,1423.18 592.584,1423.18 592.584,1079.75 565.081,1079.75 "></polyline>
<path clip-path="url(#clip292)" d="M592.584 1113.29 L592.584 1423.18 L620.086 1423.18 L620.086 1113.29 L592.584 1113.29 L592.584 1113.29  Z" fill="#0000ff" fill-rule="evenodd" fill-opacity="0.5"></path>
<polyline clip-path="url(#clip292)" style="stroke:#008000; stroke-linecap:round; stroke-linejoin:round; stroke-width:8; stroke-opacity:0.5; fill:none" points="592.584,1113.29 592.584,1423.18 620.086,1423.18 620.086,1113.29 592.584,1113.29 "></polyline>
<path clip-path="url(#clip292)" d="M620.086 1169.94 L620.086 1423.18 L647.589 1423.18 L647.589 1169.94 L620.086 1169.94 L620.086 1169.94  Z" fill="#0000ff" fill-rule="evenodd" fill-opacity="0.5"></path>
<polyline clip-path="url(#clip292)" style="stroke:#008000; stroke-linecap:round; stroke-linejoin:round; stroke-width:8; stroke-opacity:0.5; fill:none" points="620.086,1169.94 620.086,1423.18 647.589,1423.18 647.589,1169.94 620.086,1169.94 "></polyline>
<path clip-path="url(#clip292)" d="M647.589 1172.26 L647.589 1423.18 L675.092 1423.18 L675.092 1172.26 L647.589 1172.26 L647.589 1172.26  Z" fill="#0000ff" fill-rule="evenodd" fill-opacity="0.5"></path>
<polyline clip-path="url(#clip292)" style="stroke:#008000; stroke-linecap:round; stroke-linejoin:round; stroke-width:8; stroke-opacity:0.5; fill:none" points="647.589,1172.26 647.589,1423.18 675.092,1423.18 675.092,1172.26 647.589,1172.26 "></polyline>
<path clip-path="url(#clip292)" d="M675.092 1198.85 L675.092 1423.18 L702.594 1423.18 L702.594 1198.85 L675.092 1198.85 L675.092 1198.85  Z" fill="#0000ff" fill-rule="evenodd" fill-opacity="0.5"></path>
<polyline clip-path="url(#clip292)" style="stroke:#008000; stroke-linecap:round; stroke-linejoin:round; stroke-width:8; stroke-opacity:0.5; fill:none" points="675.092,1198.85 675.092,1423.18 702.594,1423.18 702.594,1198.85 675.092,1198.85 "></polyline>
<path clip-path="url(#clip292)" d="M702.594 1248.57 L702.594 1423.18 L730.097 1423.18 L730.097 1248.57 L702.594 1248.57 L702.594 1248.57  Z" fill="#0000ff" fill-rule="evenodd" fill-opacity="0.5"></path>
<polyline clip-path="url(#clip292)" style="stroke:#008000; stroke-linecap:round; stroke-linejoin:round; stroke-width:8; stroke-opacity:0.5; fill:none" points="702.594,1248.57 702.594,1423.18 730.097,1423.18 730.097,1248.57 702.594,1248.57 "></polyline>
<path clip-path="url(#clip292)" d="M730.097 1261.29 L730.097 1423.18 L757.6 1423.18 L757.6 1261.29 L730.097 1261.29 L730.097 1261.29  Z" fill="#0000ff" fill-rule="evenodd" fill-opacity="0.5"></path>
<polyline clip-path="url(#clip292)" style="stroke:#008000; stroke-linecap:round; stroke-linejoin:round; stroke-width:8; stroke-opacity:0.5; fill:none" points="730.097,1261.29 730.097,1423.18 757.6,1423.18 757.6,1261.29 730.097,1261.29 "></polyline>
<path clip-path="url(#clip292)" d="M757.6 1271.7 L757.6 1423.18 L785.102 1423.18 L785.102 1271.7 L757.6 1271.7 L757.6 1271.7  Z" fill="#0000ff" fill-rule="evenodd" fill-opacity="0.5"></path>
<polyline clip-path="url(#clip292)" style="stroke:#008000; stroke-linecap:round; stroke-linejoin:round; stroke-width:8; stroke-opacity:0.5; fill:none" points="757.6,1271.7 757.6,1423.18 785.102,1423.18 785.102,1271.7 757.6,1271.7 "></polyline>
<path clip-path="url(#clip292)" d="M785.102 1264.76 L785.102 1423.18 L812.605 1423.18 L812.605 1264.76 L785.102 1264.76 L785.102 1264.76  Z" fill="#0000ff" fill-rule="evenodd" fill-opacity="0.5"></path>
<polyline clip-path="url(#clip292)" style="stroke:#008000; stroke-linecap:round; stroke-linejoin:round; stroke-width:8; stroke-opacity:0.5; fill:none" points="785.102,1264.76 785.102,1423.18 812.605,1423.18 812.605,1264.76 785.102,1264.76 "></polyline>
<path clip-path="url(#clip292)" d="M812.605 1299.45 L812.605 1423.18 L840.108 1423.18 L840.108 1299.45 L812.605 1299.45 L812.605 1299.45  Z" fill="#0000ff" fill-rule="evenodd" fill-opacity="0.5"></path>
<polyline clip-path="url(#clip292)" style="stroke:#008000; stroke-linecap:round; stroke-linejoin:round; stroke-width:8; stroke-opacity:0.5; fill:none" points="812.605,1299.45 812.605,1423.18 840.108,1423.18 840.108,1299.45 812.605,1299.45 "></polyline>
<path clip-path="url(#clip292)" d="M840.108 1324.89 L840.108 1423.18 L867.61 1423.18 L867.61 1324.89 L840.108 1324.89 L840.108 1324.89  Z" fill="#0000ff" fill-rule="evenodd" fill-opacity="0.5"></path>
<polyline clip-path="url(#clip292)" style="stroke:#008000; stroke-linecap:round; stroke-linejoin:round; stroke-width:8; stroke-opacity:0.5; fill:none" points="840.108,1324.89 840.108,1423.18 867.61,1423.18 867.61,1324.89 840.108,1324.89 "></polyline>
<path clip-path="url(#clip292)" d="M867.61 1332.99 L867.61 1423.18 L895.113 1423.18 L895.113 1332.99 L867.61 1332.99 L867.61 1332.99  Z" fill="#0000ff" fill-rule="evenodd" fill-opacity="0.5"></path>
<polyline clip-path="url(#clip292)" style="stroke:#008000; stroke-linecap:round; stroke-linejoin:round; stroke-width:8; stroke-opacity:0.5; fill:none" points="867.61,1332.99 867.61,1423.18 895.113,1423.18 895.113,1332.99 867.61,1332.99 "></polyline>
<path clip-path="url(#clip292)" d="M895.113 1335.3 L895.113 1423.18 L922.616 1423.18 L922.616 1335.3 L895.113 1335.3 L895.113 1335.3  Z" fill="#0000ff" fill-rule="evenodd" fill-opacity="0.5"></path>
<polyline clip-path="url(#clip292)" style="stroke:#008000; stroke-linecap:round; stroke-linejoin:round; stroke-width:8; stroke-opacity:0.5; fill:none" points="895.113,1335.3 895.113,1423.18 922.616,1423.18 922.616,1335.3 895.113,1335.3 "></polyline>
<path clip-path="url(#clip292)" d="M922.616 1329.52 L922.616 1423.18 L950.119 1423.18 L950.119 1329.52 L922.616 1329.52 L922.616 1329.52  Z" fill="#0000ff" fill-rule="evenodd" fill-opacity="0.5"></path>
<polyline clip-path="url(#clip292)" style="stroke:#008000; stroke-linecap:round; stroke-linejoin:round; stroke-width:8; stroke-opacity:0.5; fill:none" points="922.616,1329.52 922.616,1423.18 950.119,1423.18 950.119,1329.52 922.616,1329.52 "></polyline>
<path clip-path="url(#clip292)" d="M950.119 1344.55 L950.119 1423.18 L977.621 1423.18 L977.621 1344.55 L950.119 1344.55 L950.119 1344.55  Z" fill="#0000ff" fill-rule="evenodd" fill-opacity="0.5"></path>
<polyline clip-path="url(#clip292)" style="stroke:#008000; stroke-linecap:round; stroke-linejoin:round; stroke-width:8; stroke-opacity:0.5; fill:none" points="950.119,1344.55 950.119,1423.18 977.621,1423.18 977.621,1344.55 950.119,1344.55 "></polyline>
<path clip-path="url(#clip292)" d="M977.621 1353.8 L977.621 1423.18 L1005.12 1423.18 L1005.12 1353.8 L977.621 1353.8 L977.621 1353.8  Z" fill="#0000ff" fill-rule="evenodd" fill-opacity="0.5"></path>
<polyline clip-path="url(#clip292)" style="stroke:#008000; stroke-linecap:round; stroke-linejoin:round; stroke-width:8; stroke-opacity:0.5; fill:none" points="977.621,1353.8 977.621,1423.18 1005.12,1423.18 1005.12,1353.8 977.621,1353.8 "></polyline>
<path clip-path="url(#clip292)" d="M1005.12 1366.52 L1005.12 1423.18 L1032.63 1423.18 L1032.63 1366.52 L1005.12 1366.52 L1005.12 1366.52  Z" fill="#0000ff" fill-rule="evenodd" fill-opacity="0.5"></path>
<polyline clip-path="url(#clip292)" style="stroke:#008000; stroke-linecap:round; stroke-linejoin:round; stroke-width:8; stroke-opacity:0.5; fill:none" points="1005.12,1366.52 1005.12,1423.18 1032.63,1423.18 1032.63,1366.52 1005.12,1366.52 "></polyline>
<path clip-path="url(#clip292)" d="M1032.63 1380.4 L1032.63 1423.18 L1060.13 1423.18 L1060.13 1380.4 L1032.63 1380.4 L1032.63 1380.4  Z" fill="#0000ff" fill-rule="evenodd" fill-opacity="0.5"></path>
<polyline clip-path="url(#clip292)" style="stroke:#008000; stroke-linecap:round; stroke-linejoin:round; stroke-width:8; stroke-opacity:0.5; fill:none" points="1032.63,1380.4 1032.63,1423.18 1060.13,1423.18 1060.13,1380.4 1032.63,1380.4 "></polyline>
<path clip-path="url(#clip292)" d="M1060.13 1387.33 L1060.13 1423.18 L1087.63 1423.18 L1087.63 1387.33 L1060.13 1387.33 L1060.13 1387.33  Z" fill="#0000ff" fill-rule="evenodd" fill-opacity="0.5"></path>
<polyline clip-path="url(#clip292)" style="stroke:#008000; stroke-linecap:round; stroke-linejoin:round; stroke-width:8; stroke-opacity:0.5; fill:none" points="1060.13,1387.33 1060.13,1423.18 1087.63,1423.18 1087.63,1387.33 1060.13,1387.33 "></polyline>
<path clip-path="url(#clip292)" d="M1087.63 1386.18 L1087.63 1423.18 L1115.13 1423.18 L1115.13 1386.18 L1087.63 1386.18 L1087.63 1386.18  Z" fill="#0000ff" fill-rule="evenodd" fill-opacity="0.5"></path>
<polyline clip-path="url(#clip292)" style="stroke:#008000; stroke-linecap:round; stroke-linejoin:round; stroke-width:8; stroke-opacity:0.5; fill:none" points="1087.63,1386.18 1087.63,1423.18 1115.13,1423.18 1115.13,1386.18 1087.63,1386.18 "></polyline>
<path clip-path="url(#clip292)" d="M1115.13 1389.65 L1115.13 1423.18 L1142.64 1423.18 L1142.64 1389.65 L1115.13 1389.65 L1115.13 1389.65  Z" fill="#0000ff" fill-rule="evenodd" fill-opacity="0.5"></path>
<polyline clip-path="url(#clip292)" style="stroke:#008000; stroke-linecap:round; stroke-linejoin:round; stroke-width:8; stroke-opacity:0.5; fill:none" points="1115.13,1389.65 1115.13,1423.18 1142.64,1423.18 1142.64,1389.65 1115.13,1389.65 "></polyline>
<path clip-path="url(#clip292)" d="M1142.64 1393.12 L1142.64 1423.18 L1170.14 1423.18 L1170.14 1393.12 L1142.64 1393.12 L1142.64 1393.12  Z" fill="#0000ff" fill-rule="evenodd" fill-opacity="0.5"></path>
<polyline clip-path="url(#clip292)" style="stroke:#008000; stroke-linecap:round; stroke-linejoin:round; stroke-width:8; stroke-opacity:0.5; fill:none" points="1142.64,1393.12 1142.64,1423.18 1170.14,1423.18 1170.14,1393.12 1142.64,1393.12 "></polyline>
<path clip-path="url(#clip292)" d="M1170.14 1401.21 L1170.14 1423.18 L1197.64 1423.18 L1197.64 1401.21 L1170.14 1401.21 L1170.14 1401.21  Z" fill="#0000ff" fill-rule="evenodd" fill-opacity="0.5"></path>
<polyline clip-path="url(#clip292)" style="stroke:#008000; stroke-linecap:round; stroke-linejoin:round; stroke-width:8; stroke-opacity:0.5; fill:none" points="1170.14,1401.21 1170.14,1423.18 1197.64,1423.18 1197.64,1401.21 1170.14,1401.21 "></polyline>
<path clip-path="url(#clip292)" d="M1197.64 1404.68 L1197.64 1423.18 L1225.15 1423.18 L1225.15 1404.68 L1197.64 1404.68 L1197.64 1404.68  Z" fill="#0000ff" fill-rule="evenodd" fill-opacity="0.5"></path>
<polyline clip-path="url(#clip292)" style="stroke:#008000; stroke-linecap:round; stroke-linejoin:round; stroke-width:8; stroke-opacity:0.5; fill:none" points="1197.64,1404.68 1197.64,1423.18 1225.15,1423.18 1225.15,1404.68 1197.64,1404.68 "></polyline>
<path clip-path="url(#clip292)" d="M1225.15 1408.15 L1225.15 1423.18 L1252.65 1423.18 L1252.65 1408.15 L1225.15 1408.15 L1225.15 1408.15  Z" fill="#0000ff" fill-rule="evenodd" fill-opacity="0.5"></path>
<polyline clip-path="url(#clip292)" style="stroke:#008000; stroke-linecap:round; stroke-linejoin:round; stroke-width:8; stroke-opacity:0.5; fill:none" points="1225.15,1408.15 1225.15,1423.18 1252.65,1423.18 1252.65,1408.15 1225.15,1408.15 "></polyline>
<path clip-path="url(#clip292)" d="M1252.65 1415.09 L1252.65 1423.18 L1280.15 1423.18 L1280.15 1415.09 L1252.65 1415.09 L1252.65 1415.09  Z" fill="#0000ff" fill-rule="evenodd" fill-opacity="0.5"></path>
<polyline clip-path="url(#clip292)" style="stroke:#008000; stroke-linecap:round; stroke-linejoin:round; stroke-width:8; stroke-opacity:0.5; fill:none" points="1252.65,1415.09 1252.65,1423.18 1280.15,1423.18 1280.15,1415.09 1252.65,1415.09 "></polyline>
<path clip-path="url(#clip292)" d="M1280.15 1403.52 L1280.15 1423.18 L1307.65 1423.18 L1307.65 1403.52 L1280.15 1403.52 L1280.15 1403.52  Z" fill="#0000ff" fill-rule="evenodd" fill-opacity="0.5"></path>
<polyline clip-path="url(#clip292)" style="stroke:#008000; stroke-linecap:round; stroke-linejoin:round; stroke-width:8; stroke-opacity:0.5; fill:none" points="1280.15,1403.52 1280.15,1423.18 1307.65,1423.18 1307.65,1403.52 1280.15,1403.52 "></polyline>
<path clip-path="url(#clip292)" d="M1307.65 1413.93 L1307.65 1423.18 L1335.16 1423.18 L1335.16 1413.93 L1307.65 1413.93 L1307.65 1413.93  Z" fill="#0000ff" fill-rule="evenodd" fill-opacity="0.5"></path>
<polyline clip-path="url(#clip292)" style="stroke:#008000; stroke-linecap:round; stroke-linejoin:round; stroke-width:8; stroke-opacity:0.5; fill:none" points="1307.65,1413.93 1307.65,1423.18 1335.16,1423.18 1335.16,1413.93 1307.65,1413.93 "></polyline>
<path clip-path="url(#clip292)" d="M1335.16 1408.15 L1335.16 1423.18 L1362.66 1423.18 L1362.66 1408.15 L1335.16 1408.15 L1335.16 1408.15  Z" fill="#0000ff" fill-rule="evenodd" fill-opacity="0.5"></path>
<polyline clip-path="url(#clip292)" style="stroke:#008000; stroke-linecap:round; stroke-linejoin:round; stroke-width:8; stroke-opacity:0.5; fill:none" points="1335.16,1408.15 1335.16,1423.18 1362.66,1423.18 1362.66,1408.15 1335.16,1408.15 "></polyline>
<path clip-path="url(#clip292)" d="M1362.66 1408.15 L1362.66 1423.18 L1390.16 1423.18 L1390.16 1408.15 L1362.66 1408.15 L1362.66 1408.15  Z" fill="#0000ff" fill-rule="evenodd" fill-opacity="0.5"></path>
<polyline clip-path="url(#clip292)" style="stroke:#008000; stroke-linecap:round; stroke-linejoin:round; stroke-width:8; stroke-opacity:0.5; fill:none" points="1362.66,1408.15 1362.66,1423.18 1390.16,1423.18 1390.16,1408.15 1362.66,1408.15 "></polyline>
<path clip-path="url(#clip292)" d="M1390.16 1419.71 L1390.16 1423.18 L1417.66 1423.18 L1417.66 1419.71 L1390.16 1419.71 L1390.16 1419.71  Z" fill="#0000ff" fill-rule="evenodd" fill-opacity="0.5"></path>
<polyline clip-path="url(#clip292)" style="stroke:#008000; stroke-linecap:round; stroke-linejoin:round; stroke-width:8; stroke-opacity:0.5; fill:none" points="1390.16,1419.71 1390.16,1423.18 1417.66,1423.18 1417.66,1419.71 1390.16,1419.71 "></polyline>
<path clip-path="url(#clip292)" d="M1417.66 1411.62 L1417.66 1423.18 L1445.17 1423.18 L1445.17 1411.62 L1417.66 1411.62 L1417.66 1411.62  Z" fill="#0000ff" fill-rule="evenodd" fill-opacity="0.5"></path>
<polyline clip-path="url(#clip292)" style="stroke:#008000; stroke-linecap:round; stroke-linejoin:round; stroke-width:8; stroke-opacity:0.5; fill:none" points="1417.66,1411.62 1417.66,1423.18 1445.17,1423.18 1445.17,1411.62 1417.66,1411.62 "></polyline>
<path clip-path="url(#clip292)" d="M1445.17 1413.93 L1445.17 1423.18 L1472.67 1423.18 L1472.67 1413.93 L1445.17 1413.93 L1445.17 1413.93  Z" fill="#0000ff" fill-rule="evenodd" fill-opacity="0.5"></path>
<polyline clip-path="url(#clip292)" style="stroke:#008000; stroke-linecap:round; stroke-linejoin:round; stroke-width:8; stroke-opacity:0.5; fill:none" points="1445.17,1413.93 1445.17,1423.18 1472.67,1423.18 1472.67,1413.93 1445.17,1413.93 "></polyline>
<path clip-path="url(#clip292)" d="M1472.67 1416.24 L1472.67 1423.18 L1500.17 1423.18 L1500.17 1416.24 L1472.67 1416.24 L1472.67 1416.24  Z" fill="#0000ff" fill-rule="evenodd" fill-opacity="0.5"></path>
<polyline clip-path="url(#clip292)" style="stroke:#008000; stroke-linecap:round; stroke-linejoin:round; stroke-width:8; stroke-opacity:0.5; fill:none" points="1472.67,1416.24 1472.67,1423.18 1500.17,1423.18 1500.17,1416.24 1472.67,1416.24 "></polyline>
<path clip-path="url(#clip292)" d="M1500.17 1417.4 L1500.17 1423.18 L1527.68 1423.18 L1527.68 1417.4 L1500.17 1417.4 L1500.17 1417.4  Z" fill="#0000ff" fill-rule="evenodd" fill-opacity="0.5"></path>
<polyline clip-path="url(#clip292)" style="stroke:#008000; stroke-linecap:round; stroke-linejoin:round; stroke-width:8; stroke-opacity:0.5; fill:none" points="1500.17,1417.4 1500.17,1423.18 1527.68,1423.18 1527.68,1417.4 1500.17,1417.4 "></polyline>
<path clip-path="url(#clip292)" d="M1527.68 1420.87 L1527.68 1423.18 L1555.18 1423.18 L1555.18 1420.87 L1527.68 1420.87 L1527.68 1420.87  Z" fill="#0000ff" fill-rule="evenodd" fill-opacity="0.5"></path>
<polyline clip-path="url(#clip292)" style="stroke:#008000; stroke-linecap:round; stroke-linejoin:round; stroke-width:8; stroke-opacity:0.5; fill:none" points="1527.68,1420.87 1527.68,1423.18 1555.18,1423.18 1555.18,1420.87 1527.68,1420.87 "></polyline>
<path clip-path="url(#clip292)" d="M1555.18 1420.87 L1555.18 1423.18 L1582.68 1423.18 L1582.68 1420.87 L1555.18 1420.87 L1555.18 1420.87  Z" fill="#0000ff" fill-rule="evenodd" fill-opacity="0.5"></path>
<polyline clip-path="url(#clip292)" style="stroke:#008000; stroke-linecap:round; stroke-linejoin:round; stroke-width:8; stroke-opacity:0.5; fill:none" points="1555.18,1420.87 1555.18,1423.18 1582.68,1423.18 1582.68,1420.87 1555.18,1420.87 "></polyline>
<path clip-path="url(#clip292)" d="M1582.68 1422.02 L1582.68 1423.18 L1610.18 1423.18 L1610.18 1422.02 L1582.68 1422.02 L1582.68 1422.02  Z" fill="#0000ff" fill-rule="evenodd" fill-opacity="0.5"></path>
<polyline clip-path="url(#clip292)" style="stroke:#008000; stroke-linecap:round; stroke-linejoin:round; stroke-width:8; stroke-opacity:0.5; fill:none" points="1582.68,1422.02 1582.68,1423.18 1610.18,1423.18 1610.18,1422.02 1582.68,1422.02 "></polyline>
<path clip-path="url(#clip292)" d="M1610.18 1419.71 L1610.18 1423.18 L1637.69 1423.18 L1637.69 1419.71 L1610.18 1419.71 L1610.18 1419.71  Z" fill="#0000ff" fill-rule="evenodd" fill-opacity="0.5"></path>
<polyline clip-path="url(#clip292)" style="stroke:#008000; stroke-linecap:round; stroke-linejoin:round; stroke-width:8; stroke-opacity:0.5; fill:none" points="1610.18,1419.71 1610.18,1423.18 1637.69,1423.18 1637.69,1419.71 1610.18,1419.71 "></polyline>
<path clip-path="url(#clip292)" d="M1637.69 1418.55 L1637.69 1423.18 L1665.19 1423.18 L1665.19 1418.55 L1637.69 1418.55 L1637.69 1418.55  Z" fill="#0000ff" fill-rule="evenodd" fill-opacity="0.5"></path>
<polyline clip-path="url(#clip292)" style="stroke:#008000; stroke-linecap:round; stroke-linejoin:round; stroke-width:8; stroke-opacity:0.5; fill:none" points="1637.69,1418.55 1637.69,1423.18 1665.19,1423.18 1665.19,1418.55 1637.69,1418.55 "></polyline>
<path clip-path="url(#clip292)" d="M1665.19 1422.02 L1665.19 1423.18 L1692.69 1423.18 L1692.69 1422.02 L1665.19 1422.02 L1665.19 1422.02  Z" fill="#0000ff" fill-rule="evenodd" fill-opacity="0.5"></path>
<polyline clip-path="url(#clip292)" style="stroke:#008000; stroke-linecap:round; stroke-linejoin:round; stroke-width:8; stroke-opacity:0.5; fill:none" points="1665.19,1422.02 1665.19,1423.18 1692.69,1423.18 1692.69,1422.02 1665.19,1422.02 "></polyline>
<path clip-path="url(#clip292)" d="M1692.69 1420.87 L1692.69 1423.18 L1720.19 1423.18 L1720.19 1420.87 L1692.69 1420.87 L1692.69 1420.87  Z" fill="#0000ff" fill-rule="evenodd" fill-opacity="0.5"></path>
<polyline clip-path="url(#clip292)" style="stroke:#008000; stroke-linecap:round; stroke-linejoin:round; stroke-width:8; stroke-opacity:0.5; fill:none" points="1692.69,1420.87 1692.69,1423.18 1720.19,1423.18 1720.19,1420.87 1692.69,1420.87 "></polyline>
<path clip-path="url(#clip292)" d="M1720.19 1418.55 L1720.19 1423.18 L1747.7 1423.18 L1747.7 1418.55 L1720.19 1418.55 L1720.19 1418.55  Z" fill="#0000ff" fill-rule="evenodd" fill-opacity="0.5"></path>
<polyline clip-path="url(#clip292)" style="stroke:#008000; stroke-linecap:round; stroke-linejoin:round; stroke-width:8; stroke-opacity:0.5; fill:none" points="1720.19,1418.55 1720.19,1423.18 1747.7,1423.18 1747.7,1418.55 1720.19,1418.55 "></polyline>
<path clip-path="url(#clip292)" d="M1747.7 1423.18 L1747.7 1423.18 L1775.2 1423.18 L1775.2 1423.18 L1747.7 1423.18 L1747.7 1423.18  Z" fill="#0000ff" fill-rule="evenodd" fill-opacity="0.5"></path>
<polyline clip-path="url(#clip292)" style="stroke:#008000; stroke-linecap:round; stroke-linejoin:round; stroke-width:8; stroke-opacity:0.5; fill:none" points="1747.7,1423.18 1747.7,1423.18 1775.2,1423.18 1747.7,1423.18 "></polyline>
<path clip-path="url(#clip292)" d="M1775.2 1422.02 L1775.2 1423.18 L1802.7 1423.18 L1802.7 1422.02 L1775.2 1422.02 L1775.2 1422.02  Z" fill="#0000ff" fill-rule="evenodd" fill-opacity="0.5"></path>
<polyline clip-path="url(#clip292)" style="stroke:#008000; stroke-linecap:round; stroke-linejoin:round; stroke-width:8; stroke-opacity:0.5; fill:none" points="1775.2,1422.02 1775.2,1423.18 1802.7,1423.18 1802.7,1422.02 1775.2,1422.02 "></polyline>
<path clip-path="url(#clip292)" d="M1802.7 1418.55 L1802.7 1423.18 L1830.2 1423.18 L1830.2 1418.55 L1802.7 1418.55 L1802.7 1418.55  Z" fill="#0000ff" fill-rule="evenodd" fill-opacity="0.5"></path>
<polyline clip-path="url(#clip292)" style="stroke:#008000; stroke-linecap:round; stroke-linejoin:round; stroke-width:8; stroke-opacity:0.5; fill:none" points="1802.7,1418.55 1802.7,1423.18 1830.2,1423.18 1830.2,1418.55 1802.7,1418.55 "></polyline>
<path clip-path="url(#clip292)" d="M1830.2 1423.18 L1830.2 1423.18 L1857.71 1423.18 L1857.71 1423.18 L1830.2 1423.18 L1830.2 1423.18  Z" fill="#0000ff" fill-rule="evenodd" fill-opacity="0.5"></path>
<polyline clip-path="url(#clip292)" style="stroke:#008000; stroke-linecap:round; stroke-linejoin:round; stroke-width:8; stroke-opacity:0.5; fill:none" points="1830.2,1423.18 1830.2,1423.18 1857.71,1423.18 1830.2,1423.18 "></polyline>
<path clip-path="url(#clip292)" d="M1857.71 1423.18 L1857.71 1423.18 L1885.21 1423.18 L1885.21 1423.18 L1857.71 1423.18 L1857.71 1423.18  Z" fill="#0000ff" fill-rule="evenodd" fill-opacity="0.5"></path>
<polyline clip-path="url(#clip292)" style="stroke:#008000; stroke-linecap:round; stroke-linejoin:round; stroke-width:8; stroke-opacity:0.5; fill:none" points="1857.71,1423.18 1857.71,1423.18 1885.21,1423.18 1857.71,1423.18 "></polyline>
<path clip-path="url(#clip292)" d="M1885.21 1420.87 L1885.21 1423.18 L1912.71 1423.18 L1912.71 1420.87 L1885.21 1420.87 L1885.21 1420.87  Z" fill="#0000ff" fill-rule="evenodd" fill-opacity="0.5"></path>
<polyline clip-path="url(#clip292)" style="stroke:#008000; stroke-linecap:round; stroke-linejoin:round; stroke-width:8; stroke-opacity:0.5; fill:none" points="1885.21,1420.87 1885.21,1423.18 1912.71,1423.18 1912.71,1420.87 1885.21,1420.87 "></polyline>
<path clip-path="url(#clip292)" d="M1912.71 1418.55 L1912.71 1423.18 L1940.22 1423.18 L1940.22 1418.55 L1912.71 1418.55 L1912.71 1418.55  Z" fill="#0000ff" fill-rule="evenodd" fill-opacity="0.5"></path>
<polyline clip-path="url(#clip292)" style="stroke:#008000; stroke-linecap:round; stroke-linejoin:round; stroke-width:8; stroke-opacity:0.5; fill:none" points="1912.71,1418.55 1912.71,1423.18 1940.22,1423.18 1940.22,1418.55 1912.71,1418.55 "></polyline>
<path clip-path="url(#clip292)" d="M1940.22 1422.02 L1940.22 1423.18 L1967.72 1423.18 L1967.72 1422.02 L1940.22 1422.02 L1940.22 1422.02  Z" fill="#0000ff" fill-rule="evenodd" fill-opacity="0.5"></path>
<polyline clip-path="url(#clip292)" style="stroke:#008000; stroke-linecap:round; stroke-linejoin:round; stroke-width:8; stroke-opacity:0.5; fill:none" points="1940.22,1422.02 1940.22,1423.18 1967.72,1423.18 1967.72,1422.02 1940.22,1422.02 "></polyline>
<path clip-path="url(#clip292)" d="M1967.72 1423.18 L1967.72 1423.18 L1995.22 1423.18 L1995.22 1423.18 L1967.72 1423.18 L1967.72 1423.18  Z" fill="#0000ff" fill-rule="evenodd" fill-opacity="0.5"></path>
<polyline clip-path="url(#clip292)" style="stroke:#008000; stroke-linecap:round; stroke-linejoin:round; stroke-width:8; stroke-opacity:0.5; fill:none" points="1967.72,1423.18 1967.72,1423.18 1995.22,1423.18 1967.72,1423.18 "></polyline>
<path clip-path="url(#clip292)" d="M1995.22 1423.18 L1995.22 1423.18 L2022.72 1423.18 L2022.72 1423.18 L1995.22 1423.18 L1995.22 1423.18  Z" fill="#0000ff" fill-rule="evenodd" fill-opacity="0.5"></path>
<polyline clip-path="url(#clip292)" style="stroke:#008000; stroke-linecap:round; stroke-linejoin:round; stroke-width:8; stroke-opacity:0.5; fill:none" points="1995.22,1423.18 1995.22,1423.18 2022.72,1423.18 1995.22,1423.18 "></polyline>
<path clip-path="url(#clip292)" d="M2022.72 1423.18 L2022.72 1423.18 L2050.23 1423.18 L2050.23 1423.18 L2022.72 1423.18 L2022.72 1423.18  Z" fill="#0000ff" fill-rule="evenodd" fill-opacity="0.5"></path>
<polyline clip-path="url(#clip292)" style="stroke:#008000; stroke-linecap:round; stroke-linejoin:round; stroke-width:8; stroke-opacity:0.5; fill:none" points="2022.72,1423.18 2022.72,1423.18 2050.23,1423.18 2022.72,1423.18 "></polyline>
<path clip-path="url(#clip292)" d="M2050.23 1423.18 L2050.23 1423.18 L2077.73 1423.18 L2077.73 1423.18 L2050.23 1423.18 L2050.23 1423.18  Z" fill="#0000ff" fill-rule="evenodd" fill-opacity="0.5"></path>
<polyline clip-path="url(#clip292)" style="stroke:#008000; stroke-linecap:round; stroke-linejoin:round; stroke-width:8; stroke-opacity:0.5; fill:none" points="2050.23,1423.18 2050.23,1423.18 2077.73,1423.18 2050.23,1423.18 "></polyline>
<path clip-path="url(#clip292)" d="M2077.73 1423.18 L2077.73 1423.18 L2105.23 1423.18 L2105.23 1423.18 L2077.73 1423.18 L2077.73 1423.18  Z" fill="#0000ff" fill-rule="evenodd" fill-opacity="0.5"></path>
<polyline clip-path="url(#clip292)" style="stroke:#008000; stroke-linecap:round; stroke-linejoin:round; stroke-width:8; stroke-opacity:0.5; fill:none" points="2077.73,1423.18 2077.73,1423.18 2105.23,1423.18 2077.73,1423.18 "></polyline>
<path clip-path="url(#clip292)" d="M2105.23 1423.18 L2105.23 1423.18 L2132.73 1423.18 L2132.73 1423.18 L2105.23 1423.18 L2105.23 1423.18  Z" fill="#0000ff" fill-rule="evenodd" fill-opacity="0.5"></path>
<polyline clip-path="url(#clip292)" style="stroke:#008000; stroke-linecap:round; stroke-linejoin:round; stroke-width:8; stroke-opacity:0.5; fill:none" points="2105.23,1423.18 2105.23,1423.18 2132.73,1423.18 2105.23,1423.18 "></polyline>
<path clip-path="url(#clip292)" d="M2132.73 1422.02 L2132.73 1423.18 L2160.24 1423.18 L2160.24 1422.02 L2132.73 1422.02 L2132.73 1422.02  Z" fill="#0000ff" fill-rule="evenodd" fill-opacity="0.5"></path>
<polyline clip-path="url(#clip292)" style="stroke:#008000; stroke-linecap:round; stroke-linejoin:round; stroke-width:8; stroke-opacity:0.5; fill:none" points="2132.73,1422.02 2132.73,1423.18 2160.24,1423.18 2160.24,1422.02 2132.73,1422.02 "></polyline>
<path clip-path="url(#clip292)" d="M2160.24 1423.18 L2160.24 1423.18 L2187.74 1423.18 L2187.74 1423.18 L2160.24 1423.18 L2160.24 1423.18  Z" fill="#0000ff" fill-rule="evenodd" fill-opacity="0.5"></path>
<polyline clip-path="url(#clip292)" style="stroke:#008000; stroke-linecap:round; stroke-linejoin:round; stroke-width:8; stroke-opacity:0.5; fill:none" points="2160.24,1423.18 2160.24,1423.18 2187.74,1423.18 2160.24,1423.18 "></polyline>
<path clip-path="url(#clip292)" d="M2187.74 1422.02 L2187.74 1423.18 L2215.24 1423.18 L2215.24 1422.02 L2187.74 1422.02 L2187.74 1422.02  Z" fill="#0000ff" fill-rule="evenodd" fill-opacity="0.5"></path>
<polyline clip-path="url(#clip292)" style="stroke:#008000; stroke-linecap:round; stroke-linejoin:round; stroke-width:8; stroke-opacity:0.5; fill:none" points="2187.74,1422.02 2187.74,1423.18 2215.24,1423.18 2215.24,1422.02 2187.74,1422.02 "></polyline>
<path clip-path="url(#clip292)" d="M2215.24 1423.18 L2215.24 1423.18 L2242.75 1423.18 L2242.75 1423.18 L2215.24 1423.18 L2215.24 1423.18  Z" fill="#0000ff" fill-rule="evenodd" fill-opacity="0.5"></path>
<polyline clip-path="url(#clip292)" style="stroke:#008000; stroke-linecap:round; stroke-linejoin:round; stroke-width:8; stroke-opacity:0.5; fill:none" points="2215.24,1423.18 2215.24,1423.18 2242.75,1423.18 2215.24,1423.18 "></polyline>
<path clip-path="url(#clip292)" d="M2242.75 1423.18 L2242.75 1423.18 L2270.25 1423.18 L2270.25 1423.18 L2242.75 1423.18 L2242.75 1423.18  Z" fill="#0000ff" fill-rule="evenodd" fill-opacity="0.5"></path>
<polyline clip-path="url(#clip292)" style="stroke:#008000; stroke-linecap:round; stroke-linejoin:round; stroke-width:8; stroke-opacity:0.5; fill:none" points="2242.75,1423.18 2242.75,1423.18 2270.25,1423.18 2242.75,1423.18 "></polyline>
<path clip-path="url(#clip292)" d="M2270.25 1423.18 L2270.25 1423.18 L2297.75 1423.18 L2297.75 1423.18 L2270.25 1423.18 L2270.25 1423.18  Z" fill="#0000ff" fill-rule="evenodd" fill-opacity="0.5"></path>
<polyline clip-path="url(#clip292)" style="stroke:#008000; stroke-linecap:round; stroke-linejoin:round; stroke-width:8; stroke-opacity:0.5; fill:none" points="2270.25,1423.18 2270.25,1423.18 2297.75,1423.18 2270.25,1423.18 "></polyline>
<path clip-path="url(#clip292)" d="M2297.75 1423.18 L2297.75 1423.18 L2325.25 1423.18 L2325.25 1423.18 L2297.75 1423.18 L2297.75 1423.18  Z" fill="#0000ff" fill-rule="evenodd" fill-opacity="0.5"></path>
<polyline clip-path="url(#clip292)" style="stroke:#008000; stroke-linecap:round; stroke-linejoin:round; stroke-width:8; stroke-opacity:0.5; fill:none" points="2297.75,1423.18 2297.75,1423.18 2325.25,1423.18 2297.75,1423.18 "></polyline>
<path clip-path="url(#clip292)" d="M2325.25 1423.18 L2325.25 1423.18 L2352.76 1423.18 L2352.76 1423.18 L2325.25 1423.18 L2325.25 1423.18  Z" fill="#0000ff" fill-rule="evenodd" fill-opacity="0.5"></path>
<polyline clip-path="url(#clip292)" style="stroke:#008000; stroke-linecap:round; stroke-linejoin:round; stroke-width:8; stroke-opacity:0.5; fill:none" points="2325.25,1423.18 2325.25,1423.18 2352.76,1423.18 2325.25,1423.18 "></polyline>
<path clip-path="url(#clip292)" d="M2352.76 1422.02 L2352.76 1423.18 L2380.26 1423.18 L2380.26 1422.02 L2352.76 1422.02 L2352.76 1422.02  Z" fill="#0000ff" fill-rule="evenodd" fill-opacity="0.5"></path>
<polyline clip-path="url(#clip292)" style="stroke:#008000; stroke-linecap:round; stroke-linejoin:round; stroke-width:8; stroke-opacity:0.5; fill:none" points="2352.76,1422.02 2352.76,1423.18 2380.26,1423.18 2380.26,1422.02 2352.76,1422.02 "></polyline>
<circle clip-path="url(#clip292)" style="fill:#008000; stroke:none; fill-opacity:0" cx="276.303" cy="123.472" r="2"></circle>
<circle clip-path="url(#clip292)" style="fill:#008000; stroke:none; fill-opacity:0" cx="303.805" cy="266.856" r="2"></circle>
<circle clip-path="url(#clip292)" style="fill:#008000; stroke:none; fill-opacity:0" cx="331.308" cy="391.739" r="2"></circle>
<circle clip-path="url(#clip292)" style="fill:#008000; stroke:none; fill-opacity:0" cx="358.811" cy="564.031" r="2"></circle>
<circle clip-path="url(#clip292)" style="fill:#008000; stroke:none; fill-opacity:0" cx="386.313" cy="590.627" r="2"></circle>
<circle clip-path="url(#clip292)" style="fill:#008000; stroke:none; fill-opacity:0" cx="413.816" cy="731.698" r="2"></circle>
<circle clip-path="url(#clip292)" style="fill:#008000; stroke:none; fill-opacity:0" cx="441.319" cy="786.046" r="2"></circle>
<circle clip-path="url(#clip292)" style="fill:#008000; stroke:none; fill-opacity:0" cx="468.821" cy="846.174" r="2"></circle>
<circle clip-path="url(#clip292)" style="fill:#008000; stroke:none; fill-opacity:0" cx="496.324" cy="902.834" r="2"></circle>
<circle clip-path="url(#clip292)" style="fill:#008000; stroke:none; fill-opacity:0" cx="523.827" cy="1001.12" r="2"></circle>
<circle clip-path="url(#clip292)" style="fill:#008000; stroke:none; fill-opacity:0" cx="551.33" cy="991.871" r="2"></circle>
<circle clip-path="url(#clip292)" style="fill:#008000; stroke:none; fill-opacity:0" cx="578.832" cy="1079.75" r="2"></circle>
<circle clip-path="url(#clip292)" style="fill:#008000; stroke:none; fill-opacity:0" cx="606.335" cy="1113.29" r="2"></circle>
<circle clip-path="url(#clip292)" style="fill:#008000; stroke:none; fill-opacity:0" cx="633.838" cy="1169.94" r="2"></circle>
<circle clip-path="url(#clip292)" style="fill:#008000; stroke:none; fill-opacity:0" cx="661.34" cy="1172.26" r="2"></circle>
<circle clip-path="url(#clip292)" style="fill:#008000; stroke:none; fill-opacity:0" cx="688.843" cy="1198.85" r="2"></circle>
<circle clip-path="url(#clip292)" style="fill:#008000; stroke:none; fill-opacity:0" cx="716.346" cy="1248.57" r="2"></circle>
<circle clip-path="url(#clip292)" style="fill:#008000; stroke:none; fill-opacity:0" cx="743.848" cy="1261.29" r="2"></circle>
<circle clip-path="url(#clip292)" style="fill:#008000; stroke:none; fill-opacity:0" cx="771.351" cy="1271.7" r="2"></circle>
<circle clip-path="url(#clip292)" style="fill:#008000; stroke:none; fill-opacity:0" cx="798.854" cy="1264.76" r="2"></circle>
<circle clip-path="url(#clip292)" style="fill:#008000; stroke:none; fill-opacity:0" cx="826.356" cy="1299.45" r="2"></circle>
<circle clip-path="url(#clip292)" style="fill:#008000; stroke:none; fill-opacity:0" cx="853.859" cy="1324.89" r="2"></circle>
<circle clip-path="url(#clip292)" style="fill:#008000; stroke:none; fill-opacity:0" cx="881.362" cy="1332.99" r="2"></circle>
<circle clip-path="url(#clip292)" style="fill:#008000; stroke:none; fill-opacity:0" cx="908.865" cy="1335.3" r="2"></circle>
<circle clip-path="url(#clip292)" style="fill:#008000; stroke:none; fill-opacity:0" cx="936.367" cy="1329.52" r="2"></circle>
<circle clip-path="url(#clip292)" style="fill:#008000; stroke:none; fill-opacity:0" cx="963.87" cy="1344.55" r="2"></circle>
<circle clip-path="url(#clip292)" style="fill:#008000; stroke:none; fill-opacity:0" cx="991.373" cy="1353.8" r="2"></circle>
<circle clip-path="url(#clip292)" style="fill:#008000; stroke:none; fill-opacity:0" cx="1018.88" cy="1366.52" r="2"></circle>
<circle clip-path="url(#clip292)" style="fill:#008000; stroke:none; fill-opacity:0" cx="1046.38" cy="1380.4" r="2"></circle>
<circle clip-path="url(#clip292)" style="fill:#008000; stroke:none; fill-opacity:0" cx="1073.88" cy="1387.33" r="2"></circle>
<circle clip-path="url(#clip292)" style="fill:#008000; stroke:none; fill-opacity:0" cx="1101.38" cy="1386.18" r="2"></circle>
<circle clip-path="url(#clip292)" style="fill:#008000; stroke:none; fill-opacity:0" cx="1128.89" cy="1389.65" r="2"></circle>
<circle clip-path="url(#clip292)" style="fill:#008000; stroke:none; fill-opacity:0" cx="1156.39" cy="1393.12" r="2"></circle>
<circle clip-path="url(#clip292)" style="fill:#008000; stroke:none; fill-opacity:0" cx="1183.89" cy="1401.21" r="2"></circle>
<circle clip-path="url(#clip292)" style="fill:#008000; stroke:none; fill-opacity:0" cx="1211.39" cy="1404.68" r="2"></circle>
<circle clip-path="url(#clip292)" style="fill:#008000; stroke:none; fill-opacity:0" cx="1238.9" cy="1408.15" r="2"></circle>
<circle clip-path="url(#clip292)" style="fill:#008000; stroke:none; fill-opacity:0" cx="1266.4" cy="1415.09" r="2"></circle>
<circle clip-path="url(#clip292)" style="fill:#008000; stroke:none; fill-opacity:0" cx="1293.9" cy="1403.52" r="2"></circle>
<circle clip-path="url(#clip292)" style="fill:#008000; stroke:none; fill-opacity:0" cx="1321.4" cy="1413.93" r="2"></circle>
<circle clip-path="url(#clip292)" style="fill:#008000; stroke:none; fill-opacity:0" cx="1348.91" cy="1408.15" r="2"></circle>
<circle clip-path="url(#clip292)" style="fill:#008000; stroke:none; fill-opacity:0" cx="1376.41" cy="1408.15" r="2"></circle>
<circle clip-path="url(#clip292)" style="fill:#008000; stroke:none; fill-opacity:0" cx="1403.91" cy="1419.71" r="2"></circle>
<circle clip-path="url(#clip292)" style="fill:#008000; stroke:none; fill-opacity:0" cx="1431.42" cy="1411.62" r="2"></circle>
<circle clip-path="url(#clip292)" style="fill:#008000; stroke:none; fill-opacity:0" cx="1458.92" cy="1413.93" r="2"></circle>
<circle clip-path="url(#clip292)" style="fill:#008000; stroke:none; fill-opacity:0" cx="1486.42" cy="1416.24" r="2"></circle>
<circle clip-path="url(#clip292)" style="fill:#008000; stroke:none; fill-opacity:0" cx="1513.92" cy="1417.4" r="2"></circle>
<circle clip-path="url(#clip292)" style="fill:#008000; stroke:none; fill-opacity:0" cx="1541.43" cy="1420.87" r="2"></circle>
<circle clip-path="url(#clip292)" style="fill:#008000; stroke:none; fill-opacity:0" cx="1568.93" cy="1420.87" r="2"></circle>
<circle clip-path="url(#clip292)" style="fill:#008000; stroke:none; fill-opacity:0" cx="1596.43" cy="1422.02" r="2"></circle>
<circle clip-path="url(#clip292)" style="fill:#008000; stroke:none; fill-opacity:0" cx="1623.93" cy="1419.71" r="2"></circle>
<circle clip-path="url(#clip292)" style="fill:#008000; stroke:none; fill-opacity:0" cx="1651.44" cy="1418.55" r="2"></circle>
<circle clip-path="url(#clip292)" style="fill:#008000; stroke:none; fill-opacity:0" cx="1678.94" cy="1422.02" r="2"></circle>
<circle clip-path="url(#clip292)" style="fill:#008000; stroke:none; fill-opacity:0" cx="1706.44" cy="1420.87" r="2"></circle>
<circle clip-path="url(#clip292)" style="fill:#008000; stroke:none; fill-opacity:0" cx="1733.95" cy="1418.55" r="2"></circle>
<circle clip-path="url(#clip292)" style="fill:#008000; stroke:none; fill-opacity:0" cx="1761.45" cy="1423.18" r="2"></circle>
<circle clip-path="url(#clip292)" style="fill:#008000; stroke:none; fill-opacity:0" cx="1788.95" cy="1422.02" r="2"></circle>
<circle clip-path="url(#clip292)" style="fill:#008000; stroke:none; fill-opacity:0" cx="1816.45" cy="1418.55" r="2"></circle>
<circle clip-path="url(#clip292)" style="fill:#008000; stroke:none; fill-opacity:0" cx="1843.96" cy="1423.18" r="2"></circle>
<circle clip-path="url(#clip292)" style="fill:#008000; stroke:none; fill-opacity:0" cx="1871.46" cy="1423.18" r="2"></circle>
<circle clip-path="url(#clip292)" style="fill:#008000; stroke:none; fill-opacity:0" cx="1898.96" cy="1420.87" r="2"></circle>
<circle clip-path="url(#clip292)" style="fill:#008000; stroke:none; fill-opacity:0" cx="1926.46" cy="1418.55" r="2"></circle>
<circle clip-path="url(#clip292)" style="fill:#008000; stroke:none; fill-opacity:0" cx="1953.97" cy="1422.02" r="2"></circle>
<circle clip-path="url(#clip292)" style="fill:#008000; stroke:none; fill-opacity:0" cx="1981.47" cy="1423.18" r="2"></circle>
<circle clip-path="url(#clip292)" style="fill:#008000; stroke:none; fill-opacity:0" cx="2008.97" cy="1423.18" r="2"></circle>
<circle clip-path="url(#clip292)" style="fill:#008000; stroke:none; fill-opacity:0" cx="2036.47" cy="1423.18" r="2"></circle>
<circle clip-path="url(#clip292)" style="fill:#008000; stroke:none; fill-opacity:0" cx="2063.98" cy="1423.18" r="2"></circle>
<circle clip-path="url(#clip292)" style="fill:#008000; stroke:none; fill-opacity:0" cx="2091.48" cy="1423.18" r="2"></circle>
<circle clip-path="url(#clip292)" style="fill:#008000; stroke:none; fill-opacity:0" cx="2118.98" cy="1423.18" r="2"></circle>
<circle clip-path="url(#clip292)" style="fill:#008000; stroke:none; fill-opacity:0" cx="2146.49" cy="1422.02" r="2"></circle>
<circle clip-path="url(#clip292)" style="fill:#008000; stroke:none; fill-opacity:0" cx="2173.99" cy="1423.18" r="2"></circle>
<circle clip-path="url(#clip292)" style="fill:#008000; stroke:none; fill-opacity:0" cx="2201.49" cy="1422.02" r="2"></circle>
<circle clip-path="url(#clip292)" style="fill:#008000; stroke:none; fill-opacity:0" cx="2228.99" cy="1423.18" r="2"></circle>
<circle clip-path="url(#clip292)" style="fill:#008000; stroke:none; fill-opacity:0" cx="2256.5" cy="1423.18" r="2"></circle>
<circle clip-path="url(#clip292)" style="fill:#008000; stroke:none; fill-opacity:0" cx="2284" cy="1423.18" r="2"></circle>
<circle clip-path="url(#clip292)" style="fill:#008000; stroke:none; fill-opacity:0" cx="2311.5" cy="1423.18" r="2"></circle>
<circle clip-path="url(#clip292)" style="fill:#008000; stroke:none; fill-opacity:0" cx="2339" cy="1423.18" r="2"></circle>
<polyline clip-path="url(#clip292)" style="stroke:#ff0000; stroke-linecap:round; stroke-linejoin:round; stroke-width:8; stroke-opacity:1; fill:none" points="479.679,2722.89 479.679,-1176.24 "></polyline>
<polyline clip-path="url(#clip292)" style="stroke:#ffa500; stroke-linecap:round; stroke-linejoin:round; stroke-width:8; stroke-opacity:1; fill:none" points="317.557,2722.89 317.557,-1176.24 "></polyline>
<polyline clip-path="url(#clip292)" style="stroke:#008000; stroke-linecap:round; stroke-linejoin:round; stroke-width:8; stroke-opacity:1; fill:none" points="565.081,2722.89 565.081,-1176.24 "></polyline>
</svg>